<?xml version="1.0" encoding="iso-8859-1"?>
<!-- Generator: Adobe Illustrator 19.0.0, SVG Export Plug-In . SVG Version: 6.00 Build 0)  -->
<svg version="1.1" id="Layer_1" xmlns="http://www.w3.org/2000/svg" xmlns:xlink="http://www.w3.org/1999/xlink" x="0px" y="0px"
	 viewBox="0 0 455 455" style="enable-background:new 0 0 455 455;" xml:space="preserve">
<path style="fill-rule:evenodd;clip-rule:evenodd;" d="M0,0v455h455V0H0z M140.599,297.5C101.601,297.5,70,266.158,70,227.517
	c0-38.675,31.601-70.018,70.599-70.018c38.981,0,70.582,31.343,70.582,70.018C211.181,266.158,179.581,297.5,140.599,297.5z
	 M314.401,297.5c-38.981,0-70.582-31.343-70.582-69.983c0-38.675,31.601-70.018,70.582-70.018c38.999,0,70.599,31.343,70.599,70.018
	C385,266.158,353.399,297.5,314.401,297.5z"/>
<g>
</g>
<g>
</g>
<g>
</g>
<g>
</g>
<g>
</g>
<g>
</g>
<g>
</g>
<g>
</g>
<g>
</g>
<g>
</g>
<g>
</g>
<g>
</g>
<g>
</g>
<g>
</g>
<g>
</g>
</svg>
