<?xml version="1.0" encoding="UTF-8" standalone="no"?>
<svg
   xmlns:dc="http://purl.org/dc/elements/1.1/"
   xmlns:cc="http://creativecommons.org/ns#"
   xmlns:rdf="http://www.w3.org/1999/02/22-rdf-syntax-ns#"
   xmlns:svg="http://www.w3.org/2000/svg"
   xmlns="http://www.w3.org/2000/svg"
   xmlns:sodipodi="http://sodipodi.sourceforge.net/DTD/sodipodi-0.dtd"
   xmlns:inkscape="http://www.inkscape.org/namespaces/inkscape"
   inkscape:version="1.0beta2 (2b71d25, 2019-12-03)"
   sodipodi:docname="flickr_inkscape.svg"
   xml:space="preserve"
   style="enable-background:new 0 0 455 455;"
   viewBox="0 0 455 455"
   y="0px"
   x="0px"
   id="Layer_1"
   version="1.1"><metadata
   id="metadata47"><rdf:RDF><cc:Work
       rdf:about=""><dc:format>image/svg+xml</dc:format><dc:type
         rdf:resource="http://purl.org/dc/dcmitype/StillImage" /><dc:title></dc:title></cc:Work></rdf:RDF></metadata><defs
   id="defs45" /><sodipodi:namedview
   inkscape:current-layer="Layer_1"
   inkscape:window-maximized="0"
   inkscape:window-y="0"
   inkscape:window-x="0"
   inkscape:cy="227.5"
   inkscape:cx="96.772388"
   inkscape:zoom="1.4725275"
   showgrid="false"
   id="namedview43"
   inkscape:window-height="900"
   inkscape:window-width="1440"
   inkscape:pageshadow="2"
   inkscape:pageopacity="0"
   guidetolerance="10"
   gridtolerance="10"
   objecttolerance="10"
   borderopacity="1"
   inkscape:document-rotation="0"
   bordercolor="#666666"
   pagecolor="#ffffff" />
<path
   id="path10"
   d="M0,0v455h455V0H0z M140.599,297.5C101.601,297.5,70,266.158,70,227.517  c0-38.675,31.601-70.018,70.599-70.018c38.981,0,70.582,31.343,70.582,70.018C211.181,266.158,179.581,297.5,140.599,297.5z   M314.401,297.5c-38.981,0-70.582-31.343-70.582-69.983c0-38.675,31.601-70.018,70.582-70.018c38.999,0,70.599,31.343,70.599,70.018  C385,266.158,353.399,297.5,314.401,297.5z"
   style="fill-rule:evenodd;clip-rule:evenodd;" />
<g
   id="g12">
</g>
<g
   id="g14">
</g>
<g
   id="g16">
</g>
<g
   id="g18">
</g>
<g
   id="g20">
</g>
<g
   id="g22">
</g>
<g
   id="g24">
</g>
<g
   id="g26">
</g>
<g
   id="g28">
</g>
<g
   id="g30">
</g>
<g
   id="g32">
</g>
<g
   id="g34">
</g>
<g
   id="g36">
</g>
<g
   id="g38">
</g>
<g
   id="g40">
</g>
<path
   inkscape:connector-curvature="0"
   id="path49"
   d="M 0,227.43209 V -0.40746269 H 227.5 455 V 227.43209 455.27164 H 227.5 0 Z m 154.49627,68.49272 c 20.70993,-3.91699 39.63711,-18.28934 49.06031,-37.25391 5.47033,-11.00929 7.29898,-19.10176 7.21245,-31.91791 -0.0534,-7.90189 -0.35842,-10.62057 -1.80645,-16.09873 -6.79051,-25.68965 -26.16328,-44.73829 -52.08945,-51.21789 -7.83755,-1.9588 -26.09178,-1.78157 -33.95522,0.32967 -20.47394,5.49702 -37.424531,19.61908 -46.311624,38.58364 -4.432692,9.45911 -6.132844,17.24241 -6.204319,28.40331 -0.08424,13.15499 1.783749,21.23096 7.492885,32.39432 14.338945,28.0377 44.993918,42.75561 76.601418,36.7775 z m 173.85074,0 c 16.27872,-3.0789 32.28998,-13.11498 42.57246,-26.68504 4.70784,-6.21306 9.76305,-16.79332 11.8637,-24.83007 1.53329,-5.86608 1.77506,-8.17848 1.77506,-16.97761 0,-8.77284 -0.24198,-11.10133 -1.74358,-16.77783 -3.36692,-12.728 -9.24696,-22.99699 -18.42137,-32.17142 -6.46178,-6.46176 -11.85294,-10.23632 -20.3436,-14.24329 -10.50796,-4.959 -15.78995,-6.03504 -29.62431,-6.03504 -13.84892,0 -19.1146,1.07516 -29.67519,6.05914 -8.30825,3.92102 -13.07057,7.15196 -19.32376,13.11 -10.27041,9.78566 -17.25693,22.52864 -20.37098,37.15545 -1.11828,5.2526 -1.11828,20.55338 0,25.80597 3.18584,14.96403 9.78404,26.96024 20.58469,37.42511 16.44939,15.93801 39.37196,22.5781 62.70688,18.16463 z"
   style="fill:#fcc920;stroke-width:0.679105;fill-opacity:1" /></svg>
