<?xml version="1.0" encoding="UTF-8" standalone="no"?>
<svg
   xmlns:dc="http://purl.org/dc/elements/1.1/"
   xmlns:cc="http://creativecommons.org/ns#"
   xmlns:rdf="http://www.w3.org/1999/02/22-rdf-syntax-ns#"
   xmlns:svg="http://www.w3.org/2000/svg"
   xmlns="http://www.w3.org/2000/svg"
   xmlns:sodipodi="http://sodipodi.sourceforge.net/DTD/sodipodi-0.dtd"
   xmlns:inkscape="http://www.inkscape.org/namespaces/inkscape"
   inkscape:version="1.0beta2 (2b71d25, 2019-12-03)"
   sodipodi:docname="github_inkscape.svg"
   version="1.1"
   width="512"
   viewBox="0 0 24 24"
   height="512"
   enable-background="new 0 0 24 24"
   id="Bold">
  <metadata
     id="metadata1024">
    <rdf:RDF>
      <cc:Work
         rdf:about="">
        <dc:format>image/svg+xml</dc:format>
        <dc:type
           rdf:resource="http://purl.org/dc/dcmitype/StillImage" />
        <dc:title></dc:title>
      </cc:Work>
    </rdf:RDF>
  </metadata>
  <defs
     id="defs1022" />
  <sodipodi:namedview
     inkscape:current-layer="Bold"
     inkscape:window-maximized="0"
     inkscape:window-y="0"
     inkscape:window-x="0"
     inkscape:cy="284.7982"
     inkscape:cx="-50.916128"
     inkscape:zoom="0.68540009"
     showgrid="false"
     id="namedview1020"
     inkscape:window-height="900"
     inkscape:window-width="1440"
     inkscape:pageshadow="2"
     inkscape:pageopacity="0"
     guidetolerance="10"
     gridtolerance="10"
     objecttolerance="10"
     borderopacity="1"
     inkscape:document-rotation="0"
     bordercolor="#666666"
     pagecolor="#ffffff" />
  <path
     style="fill:#fcc920;fill-opacity:1"
     sodipodi:nodetypes="cccscccccccscccccccscsscccc"
     inkscape:connector-curvature="0"
     id="path1017"
     d="M 0.02630995,0.03069127 C -0.01098487,8.0684034 -0.05810515,15.971905 -0.02348759,24.009585 L 8.2659491,23.99467 C 8.8781389,23.995961 9.025,23.72848 9.025,23.41548 c 0,-0.28 -0.01,-1.022 -0.015,-2.005 -3.338,0.711 -4.042,-1.582 -4.042,-1.582 -0.546,-1.361 -1.335,-1.725 -1.335,-1.725 -1.087,-0.731 0.084,-0.716 0.084,-0.716 1.205,0.082 1.838,1.215 1.838,1.215 1.07,1.803 2.809,1.282 3.495,0.981 0.108,-0.763 0.417,-1.282 0.76,-1.577 -2.665,-0.295 -5.466,-1.309 -5.466,-5.827 0,-1.287 0.465,-2.3389997 1.235,-3.1639997 -0.135,-0.298 -0.54,-1.497 0.105,-3.121 0,0 1.005,-0.316 3.3,1.209 0.96,-0.262 1.98,-0.392 3,-0.398 1.02,0.006 2.04,0.136 3,0.398 2.28,-1.525 3.285,-1.209 3.285,-1.209 0.645,1.624 0.24,2.823 0.12,3.121 0.765,0.825 1.23,1.8769997 1.23,3.1639997 0,4.53 -2.805,5.527 -5.475,5.817 0.42,0.354 0.81,1.077 0.81,2.182 0,1.578 -0.015,2.846 -0.015,3.229 0,0.309 0.112481,0.568292 0.739671,0.58438 l 8.407239,0.04408 C 23.976141,16.043161 24.005833,8.0502099 24.028938,0.05697856 16.02802,0.07873162 8.0271775,0.06119868 0.02630995,0.03069127 Z" />
</svg>
