<?xml version="1.0" encoding="UTF-8"?>
<svg width="691" height="60" version="1.1" viewBox="0 0 691 60" xmlns="http://www.w3.org/2000/svg">
				<g transform="translate(-49.2 -71.1)">
								<g style="fill:#333;stroke-width:1.02" aria-label="La Nuova Corrente">
												<path d="m73.2 72.2v1.63q-2.77 0.0815-4.24 0.652-1.39 0.489-1.87 1.96-0.489 1.39-0.489 4.4v41.1q0 2.61 0.408 3.99 0.489 1.3 1.71 1.71 1.22 0.408 3.51 0.408h4.65q3.18 0 5.54-1.14 2.45-1.14 4.24-3.34 1.79-2.2 2.93-5.38 1.14-3.26 1.63-7.34h1.87q-0.245 2.69-0.245 7.01 0 1.79 0.0815 5.14 0.163 3.34 0.489 6.93-4.16-0.163-9.37-0.163-5.22-0.0815-9.29-0.0815-1.96 0-4.97 0-3.02 0-6.6 0.0815-3.51 0-7.17 0.0815-3.59 0-6.85 0.0815v-1.63q2.69-0.163 3.99-0.652 1.39-0.489 1.79-1.96 0.489-1.47 0.489-4.4v-40.4q0-3.02-0.489-4.4-0.408-1.47-1.79-1.96-1.3-0.571-3.99-0.652v-1.63q2.04 0.0815 5.22 0.163 3.18 0.0815 6.85 0.0815 3.34 0 6.6-0.0815t5.38-0.163z"/>
												<path d="m109 131q-3.51 0-5.95-1.3-2.45-1.39-3.67-3.67-1.22-2.36-1.22-5.22 0-3.51 1.63-5.71 1.63-2.28 4.16-3.59 2.61-1.39 5.46-2.28 2.85-0.978 5.38-1.79 2.53-0.897 4.16-2.04 1.63-1.14 1.63-3.02v-5.95q0-2.61-0.815-4.24-0.734-1.71-2.28-2.53-1.47-0.897-3.75-0.897-1.71 0-3.59 0.489-1.88 0.489-3.1 1.87 2.12 0.571 3.26 2.12 1.22 1.55 1.22 3.75 0 2.53-1.71 3.99-1.63 1.39-4.16 1.39-2.69 0-4.08-1.71-1.39-1.71-1.39-3.99 0-2.28 1.14-3.75 1.14-1.55 3.18-2.77 2.04-1.39 5.22-2.2 3.18-0.815 6.93-0.815 3.59 0 6.36 0.815 2.77 0.734 4.73 2.69 1.96 1.87 2.53 4.65 0.571 2.77 0.571 6.77v22.3q0 2.04 0.489 2.93 0.489 0.815 1.55 0.815 0.815 0 1.55-0.408 0.734-0.408 1.63-1.14l0.897 1.39q-1.79 1.39-3.75 2.2-1.96 0.815-4.73 0.815-2.85 0-4.57-0.815-1.63-0.815-2.45-2.36-0.734-1.55-0.815-3.67-1.96 3.26-4.81 5.05-2.85 1.79-6.85 1.79zm4.89-4.57q1.96 0 3.59-1.06 1.71-1.06 3.1-3.18v-16.5q-0.815 1.22-2.36 2.2-1.47 0.978-3.18 1.96-1.71 0.978-3.26 2.28-1.47 1.22-2.53 3.1-0.978 1.79-0.978 4.65 0 3.18 1.55 4.89 1.55 1.63 4.08 1.63z"/>
												<path d="m211 72.2v1.63q-2.61 0.245-3.99 1.22-1.39 0.897-1.88 2.93-0.408 1.96-0.408 5.62v46.5q-0.734-0.0815-1.63-0.0815-0.815 0-1.79 0.0815l-35-47.5v35.2q0 3.91 0.489 6.11 0.489 2.12 2.12 3.1 1.71 0.897 5.14 1.22v1.63q-1.55-0.163-3.99-0.163-2.45-0.0815-4.65-0.0815-1.96 0-3.99 0.0815-1.96 0-3.26 0.163v-1.63q2.69-0.326 3.99-1.22 1.39-0.897 1.79-2.93 0.489-2.04 0.489-5.62v-37.7q0-3.02-0.489-4.4-0.408-1.47-1.79-1.96-1.3-0.571-3.99-0.652v-1.63q1.3 0.0815 3.26 0.163 2.04 0.0815 3.99 0.0815 1.87 0 3.67-0.0815t3.18-0.163l30.6 40.7v-28.6q0-3.99-0.489-6.11-0.489-2.12-2.12-3.1-1.63-0.978-5.14-1.22v-1.63q1.55 0.0815 3.99 0.163 2.53 0.0815 4.65 0.0815 2.04 0 3.99-0.0815 2.04-0.0815 3.26-0.163z"/>
												<path d="m254 86.9v34.2q0 3.67 1.22 5.46 1.22 1.71 4.32 1.71v1.71q-2.53-0.245-5.05-0.245-3.02 0-5.79 0.245-2.69 0.245-4.97 0.897v-8.15q-2.04 4.48-5.62 6.44-3.51 1.88-7.58 1.88-3.18 0-5.38-0.897-2.12-0.815-3.42-2.28-1.39-1.55-1.96-4.08-0.571-2.53-0.571-6.52v-20.6q0-3.67-1.22-5.38-1.14-1.79-4.32-1.79v-1.71q2.61 0.245 5.05 0.245 3.02 0 5.71-0.245 2.77-0.326 5.05-0.897v33.3q0 2.2 0.326 3.91 0.408 1.71 1.55 2.77 1.14 0.978 3.42 0.978 2.53 0 4.57-1.47 2.04-1.47 3.18-3.99 1.22-2.53 1.22-5.71v-20q0-3.67-1.22-5.38-1.14-1.79-4.32-1.79v-1.71q2.61 0.245 5.05 0.245 3.02 0 5.71-0.245 2.77-0.326 5.05-0.897z"/>
												<path d="m284 86.6q5.62 0 9.95 2.28 4.4 2.2 6.93 7.09 2.61 4.89 2.61 12.9t-2.61 12.9q-2.53 4.89-6.93 7.09-4.32 2.2-9.95 2.2-5.62 0-10-2.2-4.4-2.2-6.93-7.09t-2.53-12.9 2.53-12.9q2.53-4.89 6.93-7.09 4.4-2.28 10-2.28zm0 1.63q-3.83 0-6.28 4.89-2.36 4.81-2.36 15.7 0 10.9 2.36 15.7 2.45 4.81 6.28 4.81 3.75 0 6.2-4.81t2.45-15.7q0-10.9-2.45-15.7-2.45-4.89-6.2-4.89z"/>
												<path d="m347 87.8v1.71q-1.55 0.326-2.93 1.71-1.3 1.39-2.53 4.89l-12.5 34.1q-0.978-0.0815-1.96-0.0815t-2.04 0.0815l-14.7-36.1q-1.22-3.1-2.53-3.83-1.3-0.734-2.2-0.734v-1.71q2.28 0.163 4.73 0.326 2.45 0.0815 5.38 0.0815 2.53 0 5.3-0.0815 2.85-0.163 5.3-0.326v1.71q-1.79 0-3.26 0.245-1.39 0.245-1.88 1.3-0.489 0.978 0.408 3.51l9.78 25.4-0.734 0.897 7.42-20.1q1.39-3.83 1.14-6.2-0.245-2.36-1.79-3.59-1.47-1.22-4.24-1.39v-1.71q1.39 0.0815 2.61 0.163 1.3 0.0815 2.53 0.163 1.3 0 2.45 0 1.71 0 3.34-0.0815 1.71-0.0815 2.85-0.245z"/>
												<path d="m360 131q-3.51 0-5.95-1.3-2.45-1.39-3.67-3.67-1.22-2.36-1.22-5.22 0-3.51 1.63-5.71 1.63-2.28 4.16-3.59 2.61-1.39 5.46-2.28 2.85-0.978 5.38-1.79 2.53-0.897 4.16-2.04 1.63-1.14 1.63-3.02v-5.95q0-2.61-0.815-4.24-0.734-1.71-2.28-2.53-1.47-0.897-3.75-0.897-1.71 0-3.59 0.489t-3.1 1.87q2.12 0.571 3.26 2.12 1.22 1.55 1.22 3.75 0 2.53-1.71 3.99-1.63 1.39-4.16 1.39-2.69 0-4.08-1.71-1.39-1.71-1.39-3.99 0-2.28 1.14-3.75 1.14-1.55 3.18-2.77 2.04-1.39 5.22-2.2 3.18-0.815 6.93-0.815 3.59 0 6.36 0.815 2.77 0.734 4.73 2.69 1.96 1.87 2.53 4.65 0.571 2.77 0.571 6.77v22.3q0 2.04 0.489 2.93 0.489 0.815 1.55 0.815 0.815 0 1.55-0.408 0.734-0.408 1.63-1.14l0.897 1.39q-1.79 1.39-3.75 2.2-1.96 0.815-4.73 0.815-2.85 0-4.57-0.815-1.63-0.815-2.45-2.36-0.734-1.55-0.815-3.67-1.96 3.26-4.81 5.05-2.85 1.79-6.85 1.79zm4.89-4.57q1.96 0 3.59-1.06 1.71-1.06 3.1-3.18v-16.5q-0.815 1.22-2.36 2.2-1.47 0.978-3.18 1.96-1.71 0.978-3.26 2.28-1.47 1.22-2.53 3.1-0.978 1.79-0.978 4.65 0 3.18 1.55 4.89 1.55 1.63 4.08 1.63z"/>
												<path d="m439 71.1q5.38 0 8.8 1.63 3.51 1.55 6.2 3.67 1.63 1.22 2.45 0.326 0.897-0.978 1.22-4.48h1.88q-0.163 3.1-0.245 7.58-0.0815 4.48-0.0815 11.8h-1.88q-0.489-3.67-1.06-6.11-0.571-2.53-1.63-4.32-0.978-1.79-2.77-3.42-2.2-2.45-5.3-3.59-3.02-1.22-6.36-1.22-4.24 0-7.42 2.28-3.1 2.2-5.22 6.11-2.04 3.83-3.1 8.97-0.978 5.14-0.978 10.9 0 5.95 1.06 11.1 1.14 5.05 3.26 8.89 2.2 3.75 5.38 5.87 3.26 2.12 7.5 2.12 3.02 0 6.2-1.14 3.18-1.14 5.22-3.51 2.69-2.45 3.67-5.79 0.978-3.42 1.55-9.05h1.88q0 7.66 0.0815 12.4 0.0815 4.65 0.245 7.83h-1.88q-0.326-3.51-1.14-4.4-0.734-0.897-2.53 0.245-3.02 2.12-6.44 3.75-3.34 1.55-8.64 1.55-8.32 0-14.6-3.51t-9.78-10.1q-3.42-6.6-3.42-15.9 0-9.13 3.59-16 3.59-6.85 9.86-10.7t14.4-3.83z"/>
												<path d="m487 86.6q5.62 0 9.95 2.28 4.4 2.2 6.93 7.09 2.61 4.89 2.61 12.9t-2.61 12.9q-2.53 4.89-6.93 7.09-4.32 2.2-9.95 2.2-5.62 0-10-2.2-4.4-2.2-6.93-7.09t-2.53-12.9 2.53-12.9q2.53-4.89 6.93-7.09 4.4-2.28 10-2.28zm0 1.63q-3.83 0-6.28 4.89-2.36 4.81-2.36 15.7 0 10.9 2.36 15.7 2.45 4.81 6.28 4.81 3.75 0 6.2-4.81t2.45-15.7q0-10.9-2.45-15.7-2.45-4.89-6.2-4.89z"/>
												<path d="m539 86.6q2.53 0 4.16 1.06 1.71 1.06 2.53 2.69t0.815 3.42q0 2.69-1.63 4.48-1.55 1.79-4.16 1.79-2.45 0-3.99-1.3-1.55-1.3-1.55-3.59 0-2.04 0.978-3.42 1.06-1.39 2.36-2.2-0.897-0.489-2.04-0.326-1.96 0.163-3.59 1.39-1.63 1.22-2.77 3.02-1.14 1.79-1.79 3.83-0.571 2.04-0.571 3.91v20.1q0 3.99 2.04 5.38 2.04 1.3 5.95 1.3v1.71q-1.87-0.0815-5.46-0.163-3.51-0.163-7.34-0.163-3.18 0-6.36 0.163-3.1 0.0815-4.65 0.163v-1.71q3.02 0 4.24-1.22 1.3-1.22 1.3-4.65v-25.7q0-3.67-1.22-5.38-1.14-1.79-4.32-1.79v-1.71q2.61 0.245 5.05 0.245 3.02 0 5.71-0.245 2.77-0.326 5.05-0.897v8.48q0.978-2.28 2.53-4.24 1.63-1.96 3.83-3.18 2.28-1.3 4.89-1.3z"/>
												<path d="m576 86.6q2.53 0 4.16 1.06 1.71 1.06 2.53 2.69 0.815 1.63 0.815 3.42 0 2.69-1.63 4.48-1.55 1.79-4.16 1.79-2.45 0-3.99-1.3-1.55-1.3-1.55-3.59 0-2.04 0.978-3.42 1.06-1.39 2.36-2.2-0.897-0.489-2.04-0.326-1.96 0.163-3.59 1.39-1.63 1.22-2.77 3.02-1.14 1.79-1.79 3.83-0.571 2.04-0.571 3.91v20.1q0 3.99 2.04 5.38 2.04 1.3 5.95 1.3v1.71q-1.88-0.0815-5.46-0.163-3.51-0.163-7.34-0.163-3.18 0-6.36 0.163-3.1 0.0815-4.65 0.163v-1.71q3.02 0 4.24-1.22 1.3-1.22 1.3-4.65v-25.7q0-3.67-1.22-5.38-1.14-1.79-4.32-1.79v-1.71q2.61 0.245 5.05 0.245 3.02 0 5.71-0.245 2.77-0.326 5.05-0.897v8.48q0.978-2.28 2.53-4.24 1.63-1.96 3.83-3.18 2.28-1.3 4.89-1.3z"/>
												<path d="m606 86.6q7.17 0 11.2 4.32 4.08 4.32 4.08 13.8h-27.5l-0.0815-1.55h18.1q0.163-3.99-0.489-7.34-0.652-3.42-2.12-5.46-1.39-2.04-3.67-2.04-3.1 0-5.38 3.67-2.28 3.59-2.85 11.8l0.326 0.489q-0.163 1.06-0.245 2.28 0 1.22 0 2.45 0 5.62 1.63 9.29 1.63 3.67 4.24 5.38 2.61 1.71 5.38 1.71 1.88 0 3.83-0.571 1.96-0.571 3.83-2.12t3.42-4.4l1.55 0.652q-0.897 2.85-3.02 5.71-2.04 2.77-5.3 4.57-3.26 1.79-7.66 1.79-5.54 0-9.78-2.45-4.24-2.45-6.6-7.26-2.36-4.89-2.36-11.9 0-7.42 2.45-12.5 2.53-5.05 6.93-7.66 4.4-2.69 10-2.69z"/>
												<path d="m655 86.6q3.42 0 5.46 0.897 2.12 0.897 3.42 2.28 1.47 1.55 2.04 3.99 0.652 2.45 0.652 6.6v21.9q0 3.42 1.22 4.65 1.3 1.22 4.32 1.22v1.71q-1.47-0.0815-4.57-0.163-3.02-0.163-5.87-0.163-3.02 0-5.87 0.163-2.85 0.0815-4.24 0.163v-1.71q2.61 0 3.67-1.22 1.06-1.22 1.06-4.65v-24.7q0-2.2-0.408-3.91-0.408-1.79-1.63-2.77-1.22-1.06-3.51-1.06-2.69 0-4.81 1.47-2.04 1.47-3.26 4.08-1.14 2.53-1.14 5.71v21.2q0 3.42 1.06 4.65 1.06 1.22 3.67 1.22v1.71q-1.39-0.0815-4.16-0.163-2.77-0.163-5.62-0.163-3.02 0-6.11 0.163-3.1 0.0815-4.65 0.163v-1.71q3.02 0 4.24-1.22 1.3-1.22 1.3-4.65v-25.7q0-3.67-1.22-5.38-1.14-1.79-4.32-1.79v-1.71q2.61 0.245 5.05 0.245 3.02 0 5.71-0.245 2.77-0.326 5.05-0.897v8.15q2.04-4.65 5.62-6.52 3.59-1.87 7.83-1.87z"/>
												<path d="m691 74.4v13.5h10.4v1.63h-10.4v32.4q0 2.93 1.06 4.16 1.06 1.22 3.02 1.22 1.88 0 3.42-1.39 1.55-1.47 2.77-4.81l1.47 0.652q-1.22 3.99-3.83 6.68-2.53 2.61-7.17 2.61-2.77 0-4.73-0.734-1.88-0.652-3.26-1.96-1.79-1.88-2.45-4.48-0.571-2.61-0.571-6.93v-27.5h-7.17v-1.63h7.17v-11.3q2.93-0.0815 5.46-0.571 2.53-0.489 4.81-1.55z"/>
												<path d="m725 86.6q7.17 0 11.2 4.32 4.08 4.32 4.08 13.8h-27.5l-0.0815-1.55h18.1q0.163-3.99-0.489-7.34-0.652-3.42-2.12-5.46-1.39-2.04-3.67-2.04-3.1 0-5.38 3.67-2.28 3.59-2.85 11.8l0.326 0.489q-0.163 1.06-0.245 2.28 0 1.22 0 2.45 0 5.62 1.63 9.29 1.63 3.67 4.24 5.38 2.61 1.71 5.38 1.71 1.88 0 3.83-0.571 1.96-0.571 3.83-2.12 1.88-1.55 3.42-4.4l1.55 0.652q-0.897 2.85-3.02 5.71-2.04 2.77-5.3 4.57-3.26 1.79-7.66 1.79-5.54 0-9.78-2.45t-6.6-7.26q-2.36-4.89-2.36-11.9 0-7.42 2.45-12.5 2.53-5.05 6.93-7.66 4.4-2.69 10-2.69z"/>
								</g>
				</g>
</svg>
