<?xml version="1.0" encoding="UTF-8"?>
<svg width="527" height="102" version="1.1" viewBox="0 0 527 102" xmlns="http://www.w3.org/2000/svg">
				<g transform="translate(.588 -212)">
								<g style="fill:#d94339" aria-label="Monaco Mouse Trap Grand Prix">
												<path d="m26.8 238 10.8-26.2h16.2v1.08h-1.29q-1.76 0-2.81 0.615-0.732 0.41-1.17 1.38-0.322 0.703-0.322 3.66v26.2q0 3.05 0.322 3.81t1.32 1.35q0.996 0.557 2.67 0.557h1.29v1.08h-20.7v-1.08h1.29q1.76 0 2.81-0.615 0.732-0.41 1.17-1.41 0.322-0.703 0.322-3.69v-29.4l-15.2 36.2h-0.703l-15.5-36v28q0 2.93 0.146 3.6 0.381 1.46 1.64 2.4 1.29 0.908 4.01 0.908v1.08h-13.6v-1.08h0.41q1.32 0.0293 2.46-0.41 1.14-0.469 1.73-1.23 0.586-0.762 0.908-2.14 0.0586-0.322 0.0586-2.99v-25.1q0-3.02-0.322-3.75-0.322-0.762-1.32-1.32-0.996-0.586-2.67-0.586h-1.26v-1.08h16.2z"/>
												<path d="m69.8 223q3.57 0 6.65 1.85 3.08 1.85 4.66 5.24 1.61 3.4 1.61 7.44 0 5.83-2.96 9.76-3.57 4.75-9.87 4.75-6.18 0-9.52-4.34-3.34-4.34-3.34-10 0-5.89 3.4-10.3 3.43-4.39 9.38-4.39zm0.117 2.08q-1.49 0-2.58 1.14-1.05 1.11-1.41 4.45-0.322 3.31-0.322 9.23 0 3.13 0.41 5.86 0.322 2.08 1.38 3.16 1.05 1.08 2.4 1.08 1.32 0 2.2-0.732 1.14-0.996 1.52-2.78 0.586-2.78 0.586-11.2 0-4.98-0.557-6.83-0.557-1.88-1.64-2.72-0.762-0.615-1.99-0.615z"/>
												<path d="m98 224v3.54q2.11-2.29 4.04-3.31 1.93-1.05 4.16-1.05 2.67 0 4.42 1.49 1.76 1.46 2.34 3.66 0.469 1.67 0.469 6.42v10.7q0 3.16 0.557 3.96 0.586 0.762 2.4 0.967v1.05h-13.9v-1.05q1.55-0.205 2.23-1.29 0.469-0.732 0.469-3.63v-12.2q0-3.37-0.264-4.25-0.264-0.879-0.908-1.35-0.615-0.498-1.38-0.498-2.52 0-4.69 3.6v14.7q0 3.08 0.557 3.9 0.586 0.82 2.14 1.03v1.05h-13.9v-1.05q1.73-0.176 2.46-1.11 0.498-0.645 0.498-3.81v-15.5q0-3.11-0.586-3.87-0.557-0.762-2.37-0.996v-1.08z"/>
												<path d="m135 248q-5.01 4.42-8.99 4.42-2.34 0-3.9-1.52-1.55-1.55-1.55-3.87 0-3.13 2.7-5.62 2.7-2.52 11.7-6.68v-2.75q0-3.11-0.352-3.9-0.322-0.82-1.26-1.41-0.938-0.615-2.11-0.615-1.9 0-3.13 0.85-0.762 0.527-0.762 1.23 0 0.615 0.82 1.52 1.11 1.26 1.11 2.43 0 1.44-1.08 2.46-1.05 0.996-2.78 0.996-1.85 0-3.11-1.11-1.23-1.11-1.23-2.61 0-2.11 1.67-4.01 1.67-1.93 4.66-2.96t6.21-1.03q3.9 0 6.15 1.67 2.29 1.64 2.96 3.57 0.41 1.23 0.41 5.65v10.6q0 1.88 0.146 2.37 0.146 0.469 0.439 0.703 0.293 0.234 0.674 0.234 0.762 0 1.55-1.08l0.879 0.703q-1.46 2.17-3.05 3.16-1.55 0.967-3.54 0.967-2.34 0-3.66-1.08-1.32-1.11-1.61-3.34zm0-2.14v-9.17q-3.54 2.08-5.27 4.45-1.14 1.58-1.14 3.19 0 1.35 0.967 2.37 0.732 0.791 2.05 0.791 1.46 0 3.4-1.64z"/>
												<path d="m173 244 0.908 0.703q-1.93 3.63-4.83 5.42-2.87 1.76-6.12 1.76-5.48 0-8.76-4.13t-3.28-9.93q0-5.6 2.99-9.84 3.6-5.13 9.93-5.13 4.25 0 6.74 2.14 2.52 2.14 2.52 4.78 0 1.67-1.03 2.67-0.996 0.996-2.64 0.996-1.73 0-2.87-1.14-1.11-1.14-1.38-4.07-0.176-1.85-0.85-2.58-0.674-0.732-1.58-0.732-1.41 0-2.4 1.49-1.52 2.26-1.52 6.91 0 3.87 1.23 7.41 1.23 3.52 3.37 5.24 1.61 1.26 3.81 1.26 1.44 0 2.72-0.674 1.29-0.674 3.05-2.55z"/>
												<path d="m190 223q3.57 0 6.65 1.85 3.08 1.85 4.66 5.24 1.61 3.4 1.61 7.44 0 5.83-2.96 9.76-3.57 4.75-9.87 4.75-6.18 0-9.52-4.34-3.34-4.34-3.34-10 0-5.89 3.4-10.3 3.43-4.39 9.38-4.39zm0.117 2.08q-1.49 0-2.58 1.14-1.05 1.11-1.41 4.45-0.322 3.31-0.322 9.23 0 3.13 0.41 5.86 0.322 2.08 1.38 3.16 1.05 1.08 2.4 1.08 1.32 0 2.2-0.732 1.14-0.996 1.52-2.78 0.586-2.78 0.586-11.2 0-4.98-0.557-6.83-0.557-1.88-1.64-2.72-0.762-0.615-1.99-0.615z"/>
												<path d="m248 238 10.8-26.2h16.2v1.08h-1.29q-1.76 0-2.81 0.615-0.732 0.41-1.17 1.38-0.322 0.703-0.322 3.66v26.2q0 3.05 0.322 3.81t1.32 1.35q0.996 0.557 2.67 0.557h1.29v1.08h-20.7v-1.08h1.29q1.76 0 2.81-0.615 0.732-0.41 1.17-1.41 0.322-0.703 0.322-3.69v-29.4l-15.2 36.2h-0.703l-15.5-36v28q0 2.93 0.146 3.6 0.381 1.46 1.64 2.4 1.29 0.908 4.01 0.908v1.08h-13.6v-1.08h0.41q1.32 0.0293 2.46-0.41 1.14-0.469 1.73-1.23 0.586-0.762 0.908-2.14 0.0586-0.322 0.0586-2.99v-25.1q0-3.02-0.322-3.75-0.322-0.762-1.32-1.32-0.996-0.586-2.67-0.586h-1.26v-1.08h16.2z"/>
												<path d="m291 223q3.57 0 6.65 1.85 3.08 1.85 4.66 5.24 1.61 3.4 1.61 7.44 0 5.83-2.96 9.76-3.57 4.75-9.87 4.75-6.18 0-9.52-4.34-3.34-4.34-3.34-10 0-5.89 3.4-10.3 3.43-4.39 9.38-4.39zm0.117 2.08q-1.49 0-2.58 1.14-1.05 1.11-1.41 4.45-0.322 3.31-0.322 9.23 0 3.13 0.41 5.86 0.322 2.08 1.38 3.16 1.05 1.08 2.4 1.08 1.32 0 2.2-0.732 1.14-0.996 1.52-2.78 0.586-2.78 0.586-11.2 0-4.98-0.557-6.83-0.557-1.88-1.64-2.72-0.762-0.615-1.99-0.615z"/>
												<path d="m335 224v21.4q0 3.13 0.586 3.93 0.586 0.762 2.37 0.967v1.05h-11.2v-3.66q-1.96 2.34-3.93 3.43-1.96 1.05-4.39 1.05-2.31 0-4.13-1.41-1.79-1.44-2.4-3.34-0.615-1.9-0.615-6.65v-10.9q0-3.11-0.586-3.87-0.557-0.762-2.37-0.996v-1.08h11.2v18.7q0 2.93 0.264 3.78 0.293 0.85 0.879 1.29 0.615 0.439 1.41 0.439 1.05 0 1.9-0.557 1.17-0.762 2.81-3.08v-14.6q0-3.11-0.586-3.87-0.557-0.762-2.37-0.996v-1.08z"/>
												<path d="m359 223 0.439 9.35h-0.996q-1.79-4.16-3.72-5.68-1.9-1.52-3.81-1.52-1.2 0-2.05 0.82-0.85 0.791-0.85 1.85 0 0.791 0.586 1.52 0.938 1.2 5.24 4.13 4.31 2.9 5.65 4.95 1.38 2.02 1.38 4.54 0 2.29-1.14 4.48-1.14 2.2-3.22 3.37-2.08 1.17-4.6 1.17-1.96 0-5.24-1.23-0.879-0.322-1.2-0.322-0.967 0-1.61 1.46h-0.967l-0.469-9.84h0.996q1.32 3.87 3.6 5.8 2.31 1.93 4.37 1.93 1.41 0 2.29-0.85 0.908-0.879 0.908-2.11 0-1.41-0.879-2.43-0.879-1.03-3.93-3.11-4.48-3.11-5.8-4.75-1.93-2.4-1.93-5.3 0-3.16 2.17-5.71 2.2-2.58 6.33-2.58 2.23 0 4.31 1.08 0.791 0.439 1.29 0.439 0.527 0 0.85-0.205 0.322-0.234 1.03-1.26z"/>
												<path d="m388 237h-15q0.264 5.45 2.9 8.61 2.02 2.43 4.86 2.43 1.76 0 3.19-0.967 1.44-0.996 3.08-3.54l0.996 0.645q-2.23 4.54-4.92 6.45-2.7 1.88-6.24 1.88-6.09 0-9.23-4.69-2.52-3.78-2.52-9.38 0-6.86 3.69-10.9 3.72-4.07 8.7-4.07 4.16 0 7.21 3.43 3.08 3.4 3.31 10.1zm-7.21-1.96q0-4.72-0.527-6.47-0.498-1.76-1.58-2.67-0.615-0.527-1.64-0.527-1.52 0-2.49 1.49-1.73 2.61-1.73 7.15v1.03z"/>
												<path d="m442 212v10.8h-1.05q-0.938-3.72-2.08-5.33-1.14-1.64-3.13-2.61-1.11-0.527-3.9-0.527h-2.96v30.6q0 3.05 0.322 3.81 0.352 0.762 1.32 1.35 0.996 0.557 2.7 0.557h1.32v1.08h-20.8v-1.08h1.32q1.73 0 2.78-0.615 0.762-0.41 1.2-1.41 0.322-0.703 0.322-3.69v-30.6h-2.87q-4.01 0-5.83 1.7-2.55 2.37-3.22 6.77h-1.11v-10.8z"/>
												<path d="m453 224v6.21q2.72-4.25 4.78-5.62 2.05-1.41 3.96-1.41 1.64 0 2.61 1.03 0.996 0.996 0.996 2.84 0 1.96-0.967 3.05-0.938 1.08-2.29 1.08-1.55 0-2.7-0.996-1.14-0.996-1.35-1.11-0.293-0.176-0.674-0.176-0.85 0-1.61 0.645-1.2 0.996-1.82 2.84-0.938 2.84-0.938 6.27v6.3l0.0293 1.64q0 1.67 0.205 2.14 0.352 0.791 1.03 1.17 0.703 0.352 2.34 0.439v1.05h-14.8v-1.05q1.79-0.146 2.4-0.967 0.645-0.85 0.645-4.42v-15.1q0-2.34-0.234-2.99-0.293-0.82-0.85-1.2t-1.96-0.527v-1.08z"/>
												<path d="m483 248q-5.01 4.42-8.99 4.42-2.34 0-3.9-1.52-1.55-1.55-1.55-3.87 0-3.13 2.7-5.62 2.7-2.52 11.7-6.68v-2.75q0-3.11-0.352-3.9-0.322-0.82-1.26-1.41-0.938-0.615-2.11-0.615-1.9 0-3.13 0.85-0.762 0.527-0.762 1.23 0 0.615 0.82 1.52 1.11 1.26 1.11 2.43 0 1.44-1.08 2.46-1.05 0.996-2.78 0.996-1.85 0-3.11-1.11-1.23-1.11-1.23-2.61 0-2.11 1.67-4.01 1.67-1.93 4.66-2.96t6.21-1.03q3.9 0 6.15 1.67 2.29 1.64 2.96 3.57 0.41 1.23 0.41 5.65v10.6q0 1.88 0.146 2.37 0.146 0.469 0.439 0.703 0.293 0.234 0.674 0.234 0.762 0 1.55-1.08l0.879 0.703q-1.46 2.17-3.05 3.16-1.55 0.967-3.54 0.967-2.34 0-3.66-1.08-1.32-1.11-1.61-3.34zm0-2.14v-9.17q-3.54 2.08-5.27 4.45-1.14 1.58-1.14 3.19 0 1.35 0.967 2.37 0.732 0.791 2.05 0.791 1.46 0 3.4-1.64z"/>
												<path d="m509 249v10.2q0 2.11 0.322 2.87 0.352 0.762 1.05 1.11 0.703 0.352 2.75 0.352v1.08h-15.6v-1.08q1.82-0.0586 2.7-1.03 0.586-0.674 0.586-3.49v-28.9q0-2.9-0.674-3.69-0.674-0.82-2.61-0.938v-1.08h11.5v3.6q1.44-2.11 2.93-3.05 2.14-1.38 4.66-1.38 3.02 0 5.48 1.9 2.49 1.9 3.78 5.27 1.29 3.34 1.29 7.21 0 4.16-1.35 7.62-1.32 3.43-3.87 5.24-2.52 1.79-5.62 1.79-2.26 0-4.22-0.996-1.46-0.762-3.08-2.61zm0-2.96q2.52 3.57 5.39 3.57 1.58 0 2.61-1.67 1.52-2.46 1.52-9.38 0-7.09-1.67-9.7-1.11-1.73-2.99-1.73-2.96 0-4.86 4.28z"/>
												<path d="m158 273v14h-1.08q-1.96-5.74-5.89-8.73-3.93-2.99-8.58-2.99-4.45 0-7.41 2.52-2.96 2.49-4.19 6.97t-1.23 9.2q0 5.71 1.35 10 1.35 4.31 4.34 6.33 3.02 2.02 7.15 2.02 1.44 0 2.93-0.293 1.52-0.322 3.11-0.908v-8.26q0-2.34-0.322-3.02-0.322-0.703-1.35-1.26-0.996-0.557-2.43-0.557h-1.03v-1.08h19.3v1.08q-2.2 0.146-3.08 0.615-0.85 0.439-1.32 1.49-0.264 0.557-0.264 2.72v8.26q-3.81 1.7-7.94 2.55-4.1 0.879-8.53 0.879-5.65 0-9.4-1.52-3.72-1.55-6.59-4.04-2.84-2.52-4.45-5.65-2.05-4.04-2.05-9.05 0-8.96 6.3-15.1 6.3-6.18 15.8-6.18 2.96 0 5.33 0.469 1.29 0.234 4.16 1.35 2.9 1.08 3.43 1.08 0.82 0 1.52-0.586 0.703-0.615 1.29-2.29z"/>
												<path d="m176 286v6.21q2.72-4.25 4.78-5.62 2.05-1.41 3.96-1.41 1.64 0 2.61 1.03 0.996 0.996 0.996 2.84 0 1.96-0.967 3.05-0.938 1.08-2.29 1.08-1.55 0-2.7-0.996-1.14-0.996-1.35-1.11-0.293-0.176-0.674-0.176-0.85 0-1.61 0.645-1.2 0.996-1.82 2.84-0.938 2.84-0.938 6.27v6.3l0.0293 1.64q0 1.67 0.205 2.14 0.352 0.791 1.03 1.17 0.703 0.352 2.34 0.439v1.05h-14.8v-1.05q1.79-0.146 2.4-0.967 0.645-0.85 0.645-4.42v-15.1q0-2.34-0.234-2.99-0.293-0.82-0.85-1.2t-1.96-0.527v-1.08z"/>
												<path d="m207 309q-5.01 4.42-8.99 4.42-2.34 0-3.9-1.52-1.55-1.55-1.55-3.87 0-3.13 2.7-5.62 2.7-2.52 11.7-6.68v-2.75q0-3.11-0.352-3.9-0.322-0.82-1.26-1.41-0.938-0.615-2.11-0.615-1.9 0-3.13 0.85-0.762 0.527-0.762 1.23 0 0.615 0.82 1.52 1.11 1.26 1.11 2.43 0 1.44-1.08 2.46-1.05 0.996-2.78 0.996-1.85 0-3.11-1.11-1.23-1.11-1.23-2.61 0-2.11 1.67-4.01 1.67-1.93 4.66-2.96t6.21-1.03q3.9 0 6.15 1.67 2.29 1.64 2.96 3.57 0.41 1.23 0.41 5.65v10.6q0 1.88 0.146 2.37 0.146 0.469 0.439 0.703 0.293 0.234 0.674 0.234 0.762 0 1.55-1.08l0.879 0.703q-1.46 2.17-3.05 3.16-1.55 0.967-3.54 0.967-2.34 0-3.66-1.08-1.32-1.11-1.61-3.34zm0-2.14v-9.17q-3.54 2.08-5.27 4.45-1.14 1.58-1.14 3.19 0 1.35 0.967 2.37 0.732 0.791 2.05 0.791 1.46 0 3.4-1.64z"/>
												<path d="m233 286v3.54q2.11-2.29 4.04-3.31 1.93-1.05 4.16-1.05 2.67 0 4.42 1.49 1.76 1.46 2.34 3.66 0.469 1.67 0.469 6.42v10.7q0 3.16 0.557 3.96 0.586 0.762 2.4 0.967v1.05h-13.9v-1.05q1.55-0.205 2.23-1.29 0.469-0.732 0.469-3.63v-12.2q0-3.37-0.264-4.25t-0.908-1.35q-0.615-0.498-1.38-0.498-2.52 0-4.69 3.6v14.7q0 3.08 0.557 3.9 0.586 0.82 2.14 1.03v1.05h-13.9v-1.05q1.73-0.176 2.46-1.11 0.498-0.645 0.498-3.81v-15.5q0-3.11-0.586-3.87-0.557-0.762-2.37-0.996v-1.08z"/>
												<path d="m282 274v31.5q0 3.19 0.176 3.78 0.234 0.967 0.879 1.44 0.674 0.469 2.31 0.586v0.967l-11.6 2.26v-4.34q-2.08 2.52-3.72 3.43-1.61 0.908-3.66 0.908-5.24 0-8.29-4.69-2.46-3.81-2.46-9.35 0-4.42 1.52-7.91 1.52-3.52 4.16-5.3 2.67-1.79 5.71-1.79 1.96 0 3.49 0.762 1.52 0.762 3.25 2.67v-8.26q0-3.13-0.264-3.78-0.352-0.85-1.05-1.26-0.703-0.41-2.64-0.41v-1.23zm-8.2 18.6q-2.17-4.16-5.3-4.16-1.08 0-1.79 0.586-1.08 0.908-1.79 3.19-0.674 2.29-0.674 7 0 5.19 0.762 7.68 0.762 2.49 2.08 3.6 0.674 0.557 1.85 0.557 2.58 0 4.86-4.04z"/>
												<path d="m318 295v11q0 3.22 0.381 4.07 0.41 0.82 1.41 1.32 1.03 0.498 3.72 0.498v1.08h-20.2v-1.08q2.75 0 3.72-0.498 0.996-0.527 1.38-1.35 0.41-0.82 0.41-4.04v-25.8q0-3.22-0.41-4.04-0.381-0.85-1.38-1.35t-3.72-0.498v-1.08h17.3q8.55 0 12.3 3.05 3.72 3.05 3.72 7.62 0 3.87-2.4 6.62-2.4 2.75-6.62 3.75-2.84 0.703-9.61 0.703zm0-19.5v17.2q0.967 0.0586 1.46 0.0586 3.57 0 5.51-2.11 1.93-2.14 1.93-6.59 0-4.42-1.93-6.47-1.93-2.05-5.77-2.05z"/>
												<path d="m351 286v6.21q2.72-4.25 4.78-5.62 2.05-1.41 3.96-1.41 1.64 0 2.61 1.03 0.996 0.996 0.996 2.84 0 1.96-0.967 3.05-0.938 1.08-2.29 1.08-1.55 0-2.7-0.996-1.14-0.996-1.35-1.11-0.293-0.176-0.674-0.176-0.85 0-1.61 0.645-1.2 0.996-1.82 2.84-0.938 2.84-0.938 6.27v6.3l0.0293 1.64q0 1.67 0.205 2.14 0.352 0.791 1.03 1.17 0.703 0.352 2.34 0.439v1.05h-14.8v-1.05q1.79-0.146 2.4-0.967 0.645-0.85 0.645-4.42v-15.1q0-2.34-0.234-2.99-0.293-0.82-0.85-1.2t-1.96-0.527v-1.08z"/>
												<path d="m373 273q1.9 0 3.22 1.35 1.32 1.32 1.32 3.19t-1.35 3.19q-1.32 1.32-3.19 1.32t-3.19-1.32-1.32-3.19 1.32-3.19q1.32-1.35 3.19-1.35zm4.1 13.3v21.7q0 2.9 0.674 3.72 0.674 0.791 2.64 0.908v1.05h-14.8v-1.05q1.82-0.0586 2.7-1.05 0.586-0.674 0.586-3.57v-16q0-2.9-0.674-3.69-0.674-0.82-2.61-0.938v-1.08z"/>
												<path d="m399 297 4.75 9.02q2.46 4.72 3.9 5.98 0.791 0.674 2.17 0.732v1.05h-15.3v-1.05q1.79-0.146 2.2-0.469 0.439-0.322 0.439-0.879 0-0.82-0.938-2.58l-2.37-4.45-2.02 2.96q-1.38 2.02-1.55 2.4-0.234 0.557-0.234 0.996 0 0.674 0.264 1.14 0.293 0.439 0.762 0.674 0.498 0.205 1.79 0.205v1.05h-10.7v-1.05q1.99 0 3.63-1.08 1.67-1.11 4.83-5.77l2.26-3.34-4.72-8.73q-2.31-4.28-3.46-5.24-1.14-0.967-2.55-1.08v-1.08h15.2v1.08l-0.791 0.0293-1.52 0.527q-0.234 0.205-0.234 0.674 0 0.439 0.146 0.908 0.0879 0.205 0.82 1.58l2.14 3.98 1.11-1.58q2.34-3.22 2.34-4.51 0-0.615-0.527-1.03-0.498-0.439-1.82-0.586v-1.08h9.7v1.08q-1.79 0.0586-3.34 1.11-1.55 1.03-3.49 4.01z"/>
								</g>
				</g>
</svg>
