<?xml version="1.0" encoding="UTF-8"?>
<svg width="52.9mm" height="16.9mm" version="1.1" viewBox="0 0 52.9 16.9" xmlns="http://www.w3.org/2000/svg">
				<g transform="translate(-32.9 -.748)" style="shape-inside:url(#rect841);white-space:pre" aria-label="Philosophy of Engineering">
								<path d="m34.7 1.4q1.34 0 2.06 0.474 0.718 0.466 0.718 1.53 0 1.08-0.726 1.56-0.726 0.474-2.08 0.474h-0.424v2h-1.35v-5.89q0.441-0.0862 0.934-0.121 0.493-0.0345 0.865-0.0345zm0.0865 1.15q-0.147 0-0.294 0.00862-0.138 0.00862-0.242 0.0172v1.72h0.424q0.701 0 1.06-0.19 0.355-0.19 0.355-0.707 0-0.25-0.0951-0.414-0.0865-0.164-0.259-0.259-0.164-0.103-0.406-0.138-0.242-0.0431-0.536-0.0431z" style="stroke-width:.363"/>
								<path d="m38.2 7.44v-6.49l1.29-0.207v2.17q0.13-0.0431 0.329-0.0776 0.208-0.0431 0.398-0.0431 0.554 0 0.917 0.155 0.372 0.147 0.588 0.423 0.225 0.276 0.311 0.655 0.0951 0.379 0.0951 0.845v2.56h-1.29v-2.41q0-0.621-0.164-0.88-0.156-0.259-0.588-0.259-0.173 0-0.329 0.0345-0.147 0.0259-0.268 0.0604v3.45z" style="stroke-width:.363"/>
								<path d="m44.3 7.44h-1.29v-4.54h1.29zm0.121-5.84q0 0.354-0.234 0.561-0.225 0.198-0.536 0.198t-0.545-0.198q-0.225-0.207-0.225-0.561t0.225-0.552q0.234-0.207 0.545-0.207t0.536 0.207q0.234 0.198 0.234 0.552z" style="stroke-width:.363"/>
								<path d="m47.1 7.53q-0.562-0.00862-0.917-0.121-0.346-0.112-0.554-0.31-0.199-0.207-0.277-0.491-0.0692-0.293-0.0692-0.655v-4.99l1.29-0.207v4.94q0 0.172 0.026 0.31t0.0951 0.233q0.0778 0.0948 0.216 0.155 0.138 0.0604 0.372 0.0776z" style="stroke-width:.363"/>
								<path d="m52 5.16q0 0.534-0.156 0.983-0.156 0.44-0.45 0.759-0.294 0.31-0.709 0.483-0.406 0.172-0.917 0.172-0.502 0-0.917-0.172-0.406-0.172-0.701-0.483-0.294-0.319-0.458-0.759-0.164-0.448-0.164-0.983 0-0.535 0.164-0.974 0.173-0.44 0.467-0.75 0.303-0.31 0.709-0.483 0.415-0.172 0.899-0.172 0.493 0 0.899 0.172 0.415 0.172 0.709 0.483 0.294 0.311 0.458 0.75 0.164 0.44 0.164 0.974zm-1.31 0q0-0.595-0.242-0.931-0.234-0.345-0.675-0.345-0.441 0-0.683 0.345-0.242 0.336-0.242 0.931 0 0.595 0.242 0.948 0.242 0.345 0.683 0.345 0.441 0 0.675-0.345 0.242-0.354 0.242-0.948z" style="stroke-width:.363"/>
								<path d="m54.1 6.52q0.355 0 0.502-0.069 0.147-0.069 0.147-0.267 0-0.155-0.19-0.267-0.19-0.121-0.579-0.267-0.303-0.112-0.554-0.233-0.242-0.121-0.415-0.285-0.173-0.172-0.268-0.405-0.0951-0.233-0.0951-0.561 0-0.638 0.476-1.01t1.31-0.371q0.415 0 0.796 0.0776 0.381 0.069 0.606 0.155l-0.225 1q-0.225-0.0776-0.493-0.138-0.259-0.0604-0.588-0.0604-0.606 0-0.606 0.336 0 0.0776 0.026 0.138 0.026 0.0604 0.104 0.121 0.0778 0.0517 0.208 0.121 0.138 0.0604 0.346 0.138 0.424 0.155 0.701 0.31 0.277 0.147 0.433 0.328 0.164 0.172 0.225 0.388 0.0692 0.216 0.0692 0.5 0 0.672-0.51 1.02-0.502 0.345-1.43 0.345-0.606 0-1.01-0.103-0.398-0.103-0.554-0.172l0.216-1.04q0.329 0.129 0.675 0.207 0.346 0.069 0.683 0.069z" style="stroke-width:.363"/>
								<path d="m61 5.16q0 0.534-0.156 0.983-0.156 0.44-0.45 0.759-0.294 0.31-0.709 0.483-0.406 0.172-0.917 0.172-0.502 0-0.917-0.172-0.406-0.172-0.701-0.483-0.294-0.319-0.458-0.759-0.164-0.448-0.164-0.983 0-0.535 0.164-0.974 0.173-0.44 0.467-0.75 0.303-0.31 0.709-0.483 0.415-0.172 0.899-0.172 0.493 0 0.899 0.172 0.415 0.172 0.709 0.483 0.294 0.31 0.458 0.75 0.164 0.44 0.164 0.974zm-1.31 0q0-0.595-0.242-0.931-0.234-0.345-0.675-0.345-0.441 0-0.683 0.345-0.242 0.336-0.242 0.931 0 0.595 0.242 0.948 0.242 0.345 0.683 0.345 0.441 0 0.675-0.345 0.242-0.354 0.242-0.948z" style="stroke-width:.363"/>
								<path d="m64.6 5.21q0-0.595-0.268-0.948-0.268-0.362-0.796-0.362-0.173 0-0.32 0.0172-0.147 0.00862-0.242 0.0259v2.32q0.121 0.0776 0.311 0.129 0.199 0.0517 0.398 0.0517 0.917 0 0.917-1.23zm1.31-0.0345q0 0.526-0.13 0.957-0.13 0.431-0.381 0.742-0.251 0.311-0.623 0.483-0.372 0.172-0.856 0.172-0.268 0-0.502-0.0517-0.234-0.0517-0.45-0.147v1.71h-1.29v-5.97q0.173-0.0517 0.398-0.0948 0.225-0.0517 0.467-0.0862 0.251-0.0345 0.502-0.0517 0.259-0.0259 0.493-0.0259 0.562 0 1 0.172 0.441 0.164 0.744 0.474 0.303 0.302 0.458 0.742 0.164 0.44 0.164 0.983z" style="stroke-width:.363"/>
								<path d="m66.7 7.44v-6.49l1.29-0.207v2.17q0.13-0.0431 0.329-0.0776 0.208-0.0431 0.398-0.0431 0.554 0 0.917 0.155 0.372 0.147 0.588 0.423 0.225 0.276 0.311 0.655 0.0951 0.379 0.0951 0.845v2.56h-1.29v-2.41q0-0.621-0.164-0.88-0.156-0.259-0.588-0.259-0.173 0-0.329 0.0345-0.147 0.0259-0.268 0.0604v3.45z" style="stroke-width:.363"/>
								<path d="m75.5 2.9q-0.389 1.31-0.813 2.46-0.424 1.15-0.926 2.22-0.182 0.388-0.363 0.655-0.182 0.276-0.398 0.448-0.216 0.181-0.493 0.259-0.268 0.0862-0.631 0.0862-0.303 0-0.562-0.0604-0.251-0.0517-0.415-0.121l0.225-1.03q0.199 0.069 0.355 0.0948 0.156 0.0259 0.329 0.0259 0.346 0 0.528-0.19 0.19-0.181 0.32-0.509-0.441-0.862-0.882-1.93-0.441-1.08-0.83-2.41h1.37q0.0865 0.336 0.199 0.733 0.121 0.388 0.251 0.793 0.13 0.396 0.259 0.776 0.138 0.379 0.259 0.69 0.112-0.31 0.234-0.69 0.121-0.379 0.234-0.776 0.121-0.405 0.225-0.793 0.112-0.396 0.199-0.733z" style="stroke-width:.363"/>
								<path d="m82 5.16q0 0.534-0.156 0.983-0.156 0.44-0.45 0.759-0.294 0.31-0.709 0.483-0.406 0.172-0.917 0.172-0.502 0-0.917-0.172-0.406-0.172-0.701-0.483-0.294-0.319-0.458-0.759-0.164-0.448-0.164-0.983 0-0.535 0.164-0.974 0.173-0.44 0.467-0.75 0.303-0.31 0.709-0.483 0.415-0.172 0.899-0.172 0.493 0 0.899 0.172 0.415 0.172 0.709 0.483 0.294 0.31 0.458 0.75 0.164 0.44 0.164 0.974zm-1.31 0q0-0.595-0.242-0.931-0.234-0.345-0.675-0.345-0.441 0-0.683 0.345-0.242 0.336-0.242 0.931 0 0.595 0.242 0.948 0.242 0.345 0.683 0.345t0.675-0.345q0.242-0.354 0.242-0.948z" style="stroke-width:.363"/>
								<path d="m84.7 0.749q0.363 0 0.666 0.0776 0.303 0.069 0.467 0.138l-0.251 1.03q-0.173-0.0776-0.381-0.112-0.199-0.0431-0.372-0.0431-0.234 0-0.398 0.069-0.156 0.0604-0.251 0.172-0.0865 0.112-0.13 0.267-0.0346 0.155-0.0346 0.336v0.224h1.59v1.07h-1.59v3.47h-1.29v-4.78q0-0.88 0.493-1.4 0.502-0.517 1.48-0.517z" style="stroke-width:.363"/>
								<path d="m36.2 16.1v-5.97h4.05v1.13h-2.7v1.17h2.4v1.1h-2.4v1.44h2.9v1.13z" style="stroke-width:.363"/>
								<path d="m41.1 11.7q0.329-0.0948 0.848-0.172 0.519-0.0862 1.09-0.0862 0.579 0 0.96 0.155 0.389 0.147 0.614 0.423 0.225 0.276 0.32 0.655 0.0951 0.379 0.0951 0.845v2.56h-1.29v-2.41q0-0.621-0.164-0.88-0.164-0.259-0.614-0.259-0.138 0-0.294 0.0172-0.156 0.0086-0.277 0.0259v3.5h-1.29z" style="stroke-width:.363"/>
								<path d="m47 13.6q0 1.08 0.874 1.08 0.199 0 0.372-0.0518t0.294-0.121v-2.05q-0.0951-0.0172-0.225-0.0259-0.13-0.0172-0.303-0.0172-0.51 0-0.761 0.336-0.251 0.336-0.251 0.853zm2.83 1.85q0 1.11-0.571 1.65-0.562 0.543-1.75 0.543-0.415 0-0.83-0.0776-0.415-0.069-0.77-0.19l0.225-1.08q0.303 0.121 0.631 0.19 0.337 0.069 0.761 0.069 0.554 0 0.778-0.241 0.234-0.241 0.234-0.621v-0.164q-0.208 0.0948-0.433 0.147-0.216 0.0431-0.476 0.0431-0.943 0-1.44-0.552-0.502-0.561-0.502-1.56 0-0.5 0.156-0.905 0.156-0.414 0.45-0.707 0.303-0.293 0.735-0.448 0.433-0.164 0.977-0.164 0.234 0 0.476 0.0259 0.251 0.0172 0.493 0.0518 0.242 0.0345 0.458 0.0862 0.225 0.0431 0.398 0.0948z" style="stroke-width:.363"/>
								<path d="m52.1 16.1h-1.29v-4.54h1.29zm0.121-5.84q0 0.354-0.234 0.561-0.225 0.198-0.536 0.198t-0.545-0.198q-0.225-0.207-0.225-0.561 0-0.354 0.225-0.552 0.234-0.207 0.545-0.207 0.311 0 0.536 0.207 0.234 0.198 0.234 0.552z" style="stroke-width:.363"/>
								<path d="m53.1 11.7q0.329-0.0948 0.848-0.172 0.519-0.0862 1.09-0.0862 0.579 0 0.96 0.155 0.389 0.147 0.614 0.423t0.32 0.655q0.0951 0.379 0.0951 0.845v2.56h-1.29v-2.41q0-0.621-0.164-0.88-0.164-0.259-0.614-0.259-0.138 0-0.294 0.0172-0.156 0.0086-0.277 0.0259v3.5h-1.29z" style="stroke-width:.363"/>
								<path d="m57.7 13.8q0-0.604 0.182-1.05 0.19-0.457 0.493-0.759 0.303-0.302 0.692-0.457 0.398-0.155 0.813-0.155 0.969 0 1.53 0.595 0.562 0.586 0.562 1.73 0 0.112-0.0086 0.25-0.0086 0.129-0.0173 0.233h-2.92q0.0433 0.396 0.372 0.629 0.329 0.233 0.882 0.233 0.355 0 0.692-0.0604 0.346-0.069 0.562-0.164l0.173 1.04q-0.104 0.0517-0.277 0.103-0.173 0.0518-0.389 0.0862-0.208 0.0431-0.45 0.069-0.242 0.0259-0.485 0.0259-0.614 0-1.07-0.181-0.45-0.181-0.753-0.491-0.294-0.319-0.441-0.75-0.138-0.431-0.138-0.931zm3.03-0.491q-0.0086-0.164-0.0606-0.319-0.0433-0.155-0.147-0.276-0.0951-0.121-0.251-0.198-0.147-0.0776-0.372-0.0776-0.216 0-0.372 0.0776-0.156 0.069-0.259 0.19-0.104 0.121-0.164 0.285-0.0519 0.155-0.0778 0.319z" style="stroke-width:.363"/>
								<path d="m62.5 13.8q0-0.604 0.182-1.05 0.19-0.457 0.493-0.759 0.303-0.302 0.692-0.457 0.398-0.155 0.813-0.155 0.969 0 1.53 0.595 0.562 0.586 0.562 1.73 0 0.112-0.0086 0.25-0.0086 0.129-0.0173 0.233h-2.92q0.0433 0.396 0.372 0.629 0.329 0.233 0.882 0.233 0.355 0 0.692-0.0604 0.346-0.069 0.562-0.164l0.173 1.04q-0.104 0.0517-0.277 0.103-0.173 0.0518-0.389 0.0862-0.208 0.0431-0.45 0.069-0.242 0.0259-0.485 0.0259-0.614 0-1.07-0.181-0.45-0.181-0.753-0.491-0.294-0.319-0.441-0.75-0.138-0.431-0.138-0.931zm3.03-0.491q-0.0086-0.164-0.0606-0.319-0.0433-0.155-0.147-0.276-0.0951-0.121-0.251-0.198-0.147-0.0776-0.372-0.0776-0.216 0-0.372 0.0776-0.156 0.069-0.259 0.19-0.104 0.121-0.164 0.285-0.0519 0.155-0.0778 0.319z" style="stroke-width:.363"/>
								<path d="m70.3 12.7q-0.173-0.0431-0.406-0.0862-0.234-0.0517-0.502-0.0517-0.121 0-0.294 0.0259-0.164 0.0172-0.251 0.0431v3.47h-1.29v-4.29q0.346-0.121 0.813-0.224 0.476-0.112 1.06-0.112 0.104 0 0.251 0.0172 0.147 0.0086 0.294 0.0345 0.147 0.0172 0.294 0.0518 0.147 0.0259 0.251 0.069z" style="stroke-width:.363"/>
								<path d="m72.2 16.1h-1.29v-4.54h1.29zm0.121-5.84q0 0.354-0.234 0.561-0.225 0.198-0.536 0.198t-0.545-0.198q-0.225-0.207-0.225-0.561 0-0.354 0.225-0.552 0.234-0.207 0.545-0.207 0.311 0 0.536 0.207 0.234 0.198 0.234 0.552z" style="stroke-width:.363"/>
								<path d="m73.2 11.7q0.329-0.0948 0.848-0.172 0.519-0.0862 1.09-0.0862 0.579 0 0.96 0.155 0.389 0.147 0.614 0.423 0.225 0.276 0.32 0.655 0.0952 0.379 0.0951 0.845v2.56h-1.29v-2.41q0-0.621-0.164-0.88-0.164-0.259-0.614-0.259-0.138 0-0.294 0.0172-0.156 0.0086-0.277 0.0259v3.5h-1.29z" style="stroke-width:.363"/>
								<path d="m79.1 13.6q0 1.08 0.874 1.08 0.199 0 0.372-0.0518t0.294-0.121v-2.05q-0.0951-0.0172-0.225-0.0259-0.13-0.0172-0.303-0.0172-0.51 0-0.761 0.336-0.251 0.336-0.251 0.853zm2.83 1.85q0 1.11-0.571 1.65-0.562 0.543-1.75 0.543-0.415 0-0.83-0.0776-0.415-0.069-0.77-0.19l0.225-1.08q0.303 0.121 0.631 0.19 0.337 0.069 0.761 0.069 0.554 0 0.778-0.241 0.234-0.241 0.234-0.621v-0.164q-0.208 0.0948-0.433 0.147-0.216 0.0431-0.476 0.0431-0.943 0-1.44-0.552-0.502-0.561-0.502-1.56 0-0.5 0.156-0.905 0.156-0.414 0.45-0.707 0.303-0.293 0.735-0.448 0.433-0.164 0.977-0.164 0.234 0 0.476 0.0259 0.251 0.0172 0.493 0.0518 0.242 0.0345 0.458 0.0862 0.225 0.0431 0.398 0.0948z" style="stroke-width:.363"/>
				</g>
</svg>
