<svg  xmlns:svg="http://www.w3.org/2000/svg" id="svg2436" width="540.478" height="76.172" version="1.1" viewBox="0 0 143.001 20.154"><defs id="defs2430"><rect id="rect3007" width="209.874" height="112.019" x="-.429" y="0"/><rect id="rect3001" width="210.733" height="137.77" x="-.429" y="0"/></defs><metadata id="metadata2433"/><g id="layer1" transform="translate(-33.517404,-1.9469976)"><g style="font-size:26.4583px;line-height:1;font-family:sans-serif;text-align:center;text-anchor:middle;white-space:pre;shape-inside:url(#rect3007);fill:#fff;fill-opacity:1" id="text3005" aria-label="EVERYONE"><path id="path3028" d="M 47.482942,5.9002397 H 37.406051 v 4.0436756 h 9.250069 v 3.3072877 h -9.250069 v 4.896336 h 10.541978 v 3.423559 H 33.517404 V 2.5283567 h 13.965538 z" style="font-style:normal;font-variant:normal;font-weight:700;font-stretch:normal;font-size:26.4583px;font-family:Helvetica;-inkscape-font-specification:'Helvetica Bold';fill:#fff;fill-opacity:1"/><path id="path3030" d="m 62.223625,2.5283567 h 4.13411 L 59.859431,21.571098 H 56.099976 L 49.666268,2.5283567 h 4.250381 l 4.13411,14.4564633 z" style="font-style:normal;font-variant:normal;font-weight:700;font-stretch:normal;font-size:26.4583px;font-family:Helvetica;-inkscape-font-specification:'Helvetica Bold';fill:#fff;fill-opacity:1"/><path id="path3032" d="M 82.829576,5.9002397 H 72.752685 v 4.0436756 h 9.250069 v 3.3072877 h -9.250069 v 4.896336 h 10.541978 v 3.423559 H 68.864038 V 2.5283567 h 13.965538 z" style="font-style:normal;font-variant:normal;font-weight:700;font-stretch:normal;font-size:26.4583px;font-family:Helvetica;-inkscape-font-specification:'Helvetica Bold';fill:#fff;fill-opacity:1"/><path id="path3034" d="m 90.400163,5.8356442 v 5.1159598 h 4.508763 q 1.343586,0 2.015379,-0.310058 1.188556,-0.542602 1.188556,-2.1445689 0,-1.7311583 -1.149799,-2.3254365 Q 96.317107,5.8356442 95.025198,5.8356442 Z M 95.85202,2.5283567 q 2.002459,0.038757 3.074744,0.4909255 1.085206,0.4521682 1.834506,1.3306665 0.62012,0.7234691 0.98186,1.6019673 0.36173,0.8784983 0.36173,2.0024592 0,1.3565046 -0.68471,2.6742518 -0.68471,1.304828 -2.260843,1.84743 1.317743,0.529683 1.860353,1.511534 0.55552,0.968932 0.55552,2.971391 v 1.27899 q 0,1.304828 0.10335,1.769916 0.15503,0.736388 0.72347,1.085203 v 0.478007 H 98.022427 Q 97.84156,20.938062 97.764046,20.55049 97.609016,19.749506 97.596097,18.909765 l -0.02584,-1.769916 q -0.02584,-1.821592 -0.671793,-2.428789 -0.633035,-0.607197 -2.390032,-0.607197 h -4.108271 v 7.467235 H 86.511517 V 2.5283567 Z" style="font-style:normal;font-variant:normal;font-weight:700;font-stretch:normal;font-size:26.4583px;font-family:Helvetica;-inkscape-font-specification:'Helvetica Bold';fill:#fff;fill-opacity:1"/><path id="path3036" d="m 115.45674,2.5283567 h 4.50876 l -6.36911,11.8855643 v 7.157177 h -3.97908 V 14.413921 L 103.02857,2.5283567 h 4.68963 l 3.95325,8.2940573 z m -3.95324,0 z" style="font-style:normal;font-variant:normal;font-weight:700;font-stretch:normal;font-size:26.4583px;font-family:Helvetica;-inkscape-font-specification:'Helvetica Bold';fill:#fff;fill-opacity:1"/><path id="path3038" d="m 130.70773,18.728898 q 2.36419,0 3.74653,-1.744078 1.39526,-1.744077 1.39526,-4.960931 0,-3.2039346 -1.39526,-4.948012 -1.38234,-1.7569965 -3.74653,-1.7569965 -2.3642,0 -3.77238,1.7440774 -1.40818,1.7440774 -1.40818,4.9609311 0,3.216854 1.40818,4.960931 1.40818,1.744078 3.77238,1.744078 z m 9.12088,-6.705009 q 0,5.128879 -2.88096,7.854808 -2.15749,2.222084 -6.23992,2.222084 -4.08244,0 -6.23992,-2.222084 -2.89388,-2.725929 -2.89388,-7.854808 0,-5.232232 2.89388,-7.8548076 2.15748,-2.2220838 6.23992,-2.2220838 4.08243,0 6.23992,2.2220838 2.88096,2.6225756 2.88096,7.8548076 z M 130.70773,1.9469976 Z" style="font-style:normal;font-variant:normal;font-weight:700;font-stretch:normal;font-size:26.4583px;font-family:Helvetica;-inkscape-font-specification:'Helvetica Bold';fill:#fff;fill-opacity:1"/><path id="path3040" d="m 142.78708,2.5283567 h 4.17287 l 7.58351,13.2937453 V 2.5283567 h 3.70778 V 21.571098 h -3.97908 L 146.49486,8.0448089 V 21.571098 h -3.70778 z m 7.88065,-0.038757 z" style="font-style:normal;font-variant:normal;font-weight:700;font-stretch:normal;font-size:26.4583px;font-family:Helvetica;-inkscape-font-specification:'Helvetica Bold';fill:#fff;fill-opacity:1"/><path id="path3042" d="m 176.05374,5.9002397 h -10.07689 v 4.0436756 h 9.25007 v 3.3072877 h -9.25007 v 4.896336 h 10.54198 v 3.423559 H 162.0882 V 2.5283567 h 13.96554 z" style="font-style:normal;font-variant:normal;font-weight:700;font-stretch:normal;font-size:26.4583px;font-family:Helvetica;-inkscape-font-specification:'Helvetica Bold';fill:#fff;fill-opacity:1"/></g></g></svg>