<?xml version="1.0" encoding="UTF-8"?>
<svg width="106mm" height="14mm" version="1.1" viewBox="0 0 106 14" xmlns="http://www.w3.org/2000/svg">
				<g transform="translate(-77 -147)">
								<g transform="matrix(1 0 0 .994 -.128 .883)" style="fill:#fff;stroke-width:.265" aria-label="EVERYONE">
												<path d="m86.2 155h-6.48v3.43h7.38v2.4h-10.1v-13.3h9.78v2.36h-7.05v2.83h6.48z"/>
												<path d="m89.1 148h2.98l2.89 10.1 2.92-10.1h2.89l-4.55 13.3h-2.63z"/>
												<path d="m113 155h-6.48v3.43h7.38v2.4h-10.1v-13.3h9.78v2.36h-7.05v2.83h6.48z"/>
												<path d="m122 156h-2.88v5.23h-2.72v-13.3h6.54q1.4 0.0271 2.15 0.344 0.76 0.317 1.28 0.931 0.434 0.506 0.687 1.12 0.253 0.615 0.253 1.4 0 0.95-0.479 1.87-0.479 0.913-1.58 1.29 0.922 0.371 1.3 1.06 0.389 0.678 0.389 2.08v0.895q0 0.913 0.0724 1.24 0.109 0.515 0.506 0.76v0.335h-3.07q-0.127-0.443-0.181-0.714-0.109-0.561-0.118-1.15l-0.0181-1.24q-0.0181-1.28-0.47-1.7-0.443-0.425-1.67-0.425zm1.69-2.42q0.832-0.38 0.832-1.5 0-1.21-0.805-1.63-0.452-0.235-1.36-0.235h-3.24v3.58h3.16q0.941 0 1.41-0.217z"/>
												<path d="m141 148-4.46 8.32v5.01h-2.79v-5.01l-4.61-8.32h3.28l2.77 5.81 2.65-5.81z"/>
												<path d="m149 161q-2.86 0-4.37-1.56-2.03-1.91-2.03-5.5 0-3.66 2.03-5.5 1.51-1.56 4.37-1.56t4.37 1.56q2.02 1.84 2.02 5.5 0 3.59-2.02 5.5-1.51 1.56-4.37 1.56zm2.63-3.58q0.968-1.22 0.968-3.47 0-2.24-0.977-3.46-0.968-1.23-2.62-1.23-1.65 0-2.64 1.22-0.986 1.22-0.986 3.47 0 2.25 0.986 3.47 0.986 1.22 2.64 1.22 1.65 0 2.63-1.22z"/>
												<path d="m169 161h-2.79l-5.44-9.47v9.47h-2.6v-13.3h2.92l5.31 9.31v-9.31h2.6z"/>
												<path d="m182 155h-6.48v3.43h7.38v2.4h-10.1v-13.3h9.78v2.36h-7.05v2.83h6.48z"/>
								</g>
				</g>
</svg>
