<?xml version='1.0' encoding='UTF-8'?>
<svg xmlns='http://www.w3.org/2000/svg' width="638.4" height="229.6" version="1.1" viewBox="0 0 638.4 229.6"><g><path d="m83.39 274.1c-6.055-1.939-13.45-8.782-16.3-15.08-2.011-4.45-2.288-6.474-2.268-16.59 0.01906-9.695 0.3463-12.22 2.065-15.94 2.98-6.445 7.391-10.99 13.58-13.98 4.636-2.245 6.679-2.641 13.61-2.644 13.37-6e-3 21.8 4.831 27.06 15.51 3.044 6.184 3.177 6.92 3.161 17.52-0.0142 9.446-0.3381 11.78-2.219 15.96-2.572 5.725-7.545 10.84-13.55 13.93-5.435 2.798-18.41 3.478-25.15 1.319zm16.83-11.4c4.438-1.854 7.884-5.872 9.264-10.8 1.676-5.986 0.7908-18.43-1.603-22.53-4.628-7.924-14.78-10.13-22.13-4.809-5.426 3.931-7.28 8.432-7.372 17.9-0.1005 10.29 2.626 16.19 8.975 19.41 4.905 2.489 8.355 2.71 12.86 0.8265zm74.99 11.47c-5.096-1.886-10.63-7.929-12.04-13.15-0.6358-2.354-0.9474-7.55-0.7118-11.87 0.4829-8.85 2.632-13.92 7.836-18.49 6.25-5.488 18.66-6.156 26.65-1.434 3.652 2.157 7.244 7.507 8.061 12.01l0.6536 3.6h-6.827c-5.129 0-6.827-0.326-6.827-1.311 0-0.7208-0.8954-2.449-1.99-3.84-3.4-4.322-10.09-3.154-12.88 2.251-2.084 4.03-1.898 14.09 0.3382 18.27 1.587 2.968 2.277 3.377 6.132 3.633 3.749 0.2487 4.622-0.0653 6.372-2.289 1.115-1.418 2.028-3.167 2.028-3.888 0-0.984 1.694-1.311 6.796-1.311h6.796l-0.6505 3.12c-1.125 5.396-5.584 11.34-10.37 13.83-4.032 2.097-14.75 2.577-19.37 0.8668zm99.7 0.5211c-5.369-1.381-9.531-4.706-12.41-9.917-2.55-4.608-2.8-5.885-2.783-14.18 0.0198-9.58 1.132-13.17 5.606-18.09 7.54-8.297 25.18-8.543 32.49-0.4536 2.803 3.1 5.54 10.42 6.179 16.54l0.6114 5.849h-15.98c-10.34 0-15.98 0.3494-15.98 0.9908 0 0.545 0.6153 2.464 1.367 4.263 1.088 2.603 2.177 3.491 5.327 4.339 4.702 1.266 6.998 0.686 9.971-2.52 1.947-2.1 2.873-2.344 7.89-2.086 5.385 0.2774 5.671 0.4159 5.425 2.628-0.387 3.479-4.608 8.455-9.128 10.76-4.36 2.224-13.62 3.163-18.59 1.885zm14.87-31.8c-0.5551-1.592-1.925-3.536-3.044-4.32-4.59-3.215-12.36-0.4263-13.36 4.793l-0.4629 2.422h17.87zm30.72 31.32c-2.456-0.6615-5.609-1.952-7.006-2.867-3.306-2.166-6.281-7.108-6.285-10.44-4e-3 -2.629 0.0247-2.64 6.716-2.64 5.333 0 6.72 0.2971 6.72 1.44 0 2.937 3.649 5.28 8.223 5.28 5.313 0 8.097-1.34 8.097-3.898 0-2.237-2.396-3.303-11.94-5.311-11.53-2.425-16.26-6.606-16.14-14.27 0.144-9.524 7.38-15.4 18.96-15.4 11.83-6.9e-4 18.78 4.22 20.66 12.55l0.7412 3.287h-6.619c-3.773 0-6.619-0.4128-6.619-0.96 0-0.528-0.864-1.824-1.92-2.88-2.296-2.296-8.334-2.588-11.1-0.5362-3.428 2.545-0.6419 4.629 9.75 7.293 5.229 1.34 10.5 2.988 11.72 3.661 4.983 2.76 7.542 11.57 4.871 16.77-4.456 8.672-16.23 12.32-28.83 8.925zm101.3-0.0398c-6.906-3.006-9.759-11.79-6.211-19.12 2.725-5.63 5.409-7.254 14.83-8.974 9.884-1.805 12.12-2.704 12.12-4.879 0-2.868-2.033-4.053-6.957-4.053-4.163 0-4.825 0.3023-6.288 2.874-1.542 2.71-1.978 2.874-7.635 2.88-6.552 7e-3 -6.63-0.0862-5.011-5.915 2.78-10.01 19.81-14.47 31.88-8.353 6.489 3.29 6.946 4.83 7.2 24.25 0.1318 10.08 0.631 17.67 1.2 18.24 0.5359 0.5359 0.9744 1.555 0.9744 2.264 0 0.9874-1.633 1.224-6.96 1.008-6.403-0.2595-6.985-0.4563-7.269-2.458-0.3068-2.162-0.3262-2.164-2.88-0.3868-5.727 3.986-13.43 5.053-18.99 2.631zm14.77-9.26c3.772-1.315 5.967-4.668 5.967-9.117 0-2.804-0.3028-3.38-1.529-2.91-0.841 0.3227-2.569 0.801-3.84 1.063-1.271 0.2618-3.361 0.6926-4.644 0.9574-4.971 1.026-6.906 5.805-3.758 9.283 1.823 2.014 3.624 2.181 7.805 0.7238zm153.1 9.221c-6.069-1.895-10.3-5.596-13.22-11.56-2.339-4.781-2.552-6.079-2.163-13.21 0.6071-11.14 4.31-17.16 12.92-21.01 14.16-6.332 29.44 0.148 33.53 14.22 6.055 20.83-10.76 37.9-31.07 31.55zm14.51-12.08c4.552-3.58 5.647-15 1.976-20.6-3.208-4.896-10.35-5.669-14.89-1.611-2.445 2.185-3.108 3.633-3.492 7.626-1.052 10.94 2.226 16.56 9.667 16.56 2.817 0 5.073-0.6597 6.74-1.971zm-471.5-11.1 0.2568-23.63 11.52-0.2542 0.6018 6.243 2.41-2.864c2.468-2.933 8.732-5.491 11.16-4.558 0.9452 0.3627 1.419 2.406 1.559 6.724l0.2008 6.203-4.932 0.4739c-3.66 0.3517-5.591 1.132-7.487 3.027-2.635 2.633-2.861 4.922-3.024 30.59-9e-3 1.427-0.9527 1.68-6.267 1.68h-6.257zm79.18 23.03c-0.3743-0.3743-0.6806-14.65-0.6806-31.72v-31.04h13.44v20.23l2-1.864c2.68-2.497 9.954-4.229 14.52-3.457 2.038 0.3443 5.002 1.717 6.587 3.05 5.405 4.548 6.034 6.93 6.467 24.51 0.2179 8.841 0.1196 17.18-0.2184 18.52-0.5906 2.353-0.8611 2.438-6.918 2.166l-6.303-0.2832 0.1326-16.08c0.1315-15.95 0.1129-16.1-2.264-18.48-3.142-3.142-7.242-3.116-11.03 0.0691l-2.931 2.466-0.2629 16.01-0.2629 16.01-5.799 0.2806c-3.19 0.1543-6.106-0.0256-6.48-0.4zm151.3-0.3719c-4.204-1.693-5.09-5.444-5.09-21.54v-14.93h-2.88c-2.855 0-2.88-0.047-2.88-5.337 0-3.345 0.3615-5.113 0.9686-4.738 0.5327 0.3292 1.829 0.3256 2.88-8e-3 1.626-0.5163 1.911-1.459 1.911-6.302v-5.695h13.35l0.2858 6 0.2858 6 6.72 0.0402v9.56l-7.2 0.5959v13.38c0 9.988 0.3043 13.42 1.2 13.53 0.66 0.0797 2.28 0.1877 3.6 0.24 2.204 0.0874 2.424 0.5066 2.69 5.135l0.2902 5.04-7.01-0.0609c-3.856-0.0335-7.96-0.4432-9.12-0.9105zm21.76 0.7313c-0.0181-0.132-0.0487-10.82-0.0679-23.76l-0.0349-23.52h6.068c5.968 0 6.073 0.0453 6.383 2.756l0.3149 2.756 3.25-3.15c2.595-2.515 4.079-3.167 7.365-3.236l4.115-0.0854v13.44l-2.652-0.3103c-1.459-0.1707-4.201 0.2006-6.093 0.8251-5.184 1.711-6.135 4.974-6.135 21.05v13.47h-6.24c-3.432 0-6.255-0.108-6.273-0.24zm78.98-23.52 0.2568-23.76h5.751c5.596 0 5.764 0.075 6.24 2.79 0.4614 2.63 0.5718 2.69 1.929 1.044 0.792-0.9604 3.325-2.582 5.628-3.603 6.678-2.961 14.89-1.069 19.51 4.496 2.876 3.46 3.83 10.81 3.497 26.95l-0.3165 15.36-12.96 0.5677v-16.23c0-14.97-0.1549-16.43-1.99-18.76-2.835-3.604-7.762-3.486-11.52 0.2767l-2.806 2.806v31.83h-13.47zm52.33 23.19c-0.3929-0.3929-0.7143-14.68-0.7143-31.75v-31.04l17.52 0.01c16.5 9e-3 17.81 0.1442 22.5 2.329 9.086 4.23 14.06 14.4 13.96 28.59-0.0887 13.64-5.739 24.9-14.97 29.82-3.584 1.913-5.635 2.154-20.78 2.441-9.243 0.1752-17.13-3e-3 -17.52-0.3958zm31.84-13.31c5.192-2.685 8.621-14.64 6.887-24.02-2.074-11.22-5.556-13.94-17.81-13.94h-7.231v39.36h7.728c4.888 0 8.721-0.5137 10.43-1.398zm74.35-33.03c-4.308-2.704-6.112-5.744-6.112-10.3 0-6.365 5.725-11.92 12.29-11.92 4.054 0 9.011 3.746 10.65 8.046 3.794 9.968-7.87 19.79-16.83 14.17zm12.06-4.582c1.094-1.391 1.99-2.845 1.99-3.231 0-1.606-8.071 0.9153-10.41 3.252l-2.509 2.509h4.469c3.684 0 4.818-0.4441 6.458-2.529zm-10.03-4.732c1.551-2.033 2.416-4.161 2.133-5.245-0.2622-1.003 0.1466-2.34 0.9085-2.973 1.101-0.9136 1.918-0.754 3.981 0.7772 1.428 1.06 3.071 2.865 3.653 4.011 1.807 3.563 2.558 3.661 1.133 0.1472-1.915-4.719-6.454-7.221-10.61-5.849-4.076 1.345-6.826 5.811-5.972 9.699 0.8103 3.689 1.6 3.595 4.776-0.5688zm9.261-2.109c-0.4977-0.9299-1.809-2.509-2.914-3.509-2.763-2.5-2.696 0.024 0.0784 2.978 2.465 2.624 4.122 2.935 2.835 0.5311zm-610.7-29.99c0-1.916 0.64-1.92 319.2-1.92 318.6 0 319.2 4e-3 319.2 1.92 0 1.916-0.64 1.92-319.2 1.92-318.6 0-319.2-4e-3 -319.2-1.92zm72.37-15.34c-11.9-3.12-20.03-7.908-29.29-17.25-12.83-12.95-18.43-26.38-18.42-44.22 0.01831-28.49 17.4-52.13 44.94-61.12 6.495-2.12 9.383-2.504 18.72-2.487 9.227 0.01676 12.3 0.4285 18.72 2.507 10.77 3.489 18.74 8.541 26.84 17.02 12.75 13.34 18.54 28.98 17.53 47.35-0.9418 17.24-6.442 29.37-19 41.9-15.55 15.52-38.86 21.84-60.04 16.29zm32.88-3.953c16.27-4.978 29.47-16.04 36.53-30.63 5.046-10.41 6.499-16.6 6.421-27.36-0.1233-17.04-5.364-29.46-17.64-41.81-9.283-9.334-16.14-13.4-27.45-16.3-43.13-11.03-83.23 27.53-73.9 71.06 5.078 23.69 24.84 42.7 48.86 47.01 7.1 1.274 19.5 0.3708 27.18-1.978zm-28.93-4.873c-17.45-3.303-34.47-19.22-40.37-37.76-2.501-7.846-2.526-22.89-0.04987-30.24 6.705-19.9 21.9-33.83 41.38-37.92 8.241-1.73 11.4-1.741 20.76-0.07172 10.57 1.885 19.15 6.433 27.29 14.47 8.158 8.047 12.28 14.99 14.84 25.02 3.369 13.17 2.179 24.69-3.899 37.75-4.155 8.927-15.67 20.19-25.06 24.52-11.01 5.076-22.85 6.51-34.9 4.228zm8.16-27.34c0-13.39 0.1481-14.65 1.785-15.17 4.486-1.424 4.87-0.2943 5.151 15.17 0.2513 13.82 0.3606 14.55 2.184 14.55 1.81 0 1.935-0.7293 2.188-12.72 0.1473-6.996 0.4885-12.72 0.7582-12.72s2.155 0.8491 4.189 1.887c2.838 1.448 4.805 1.756 8.454 1.324 4.452-0.5272 4.883-0.3834 6.762 2.256 1.661 2.332 3.115 3.023 8.423 4.001 3.529 0.6502 6.567 1.031 6.751 0.8468 0.1844-0.1845-1.629-2.581-4.029-5.325-3.202-3.661-5.048-4.994-6.93-5.004-3.617-0.0207-4.589-0.8677-6.733-5.869-1.234-2.878-3.085-5.145-5.34-6.539-1.899-1.173-3.452-2.269-3.452-2.434 0-0.1652 4.212-2.694 9.36-5.619 12.55-7.129 12.93-7.447 11.42-9.459-1.1-1.463-2.363-0.9454-13.46 5.518-10.07 5.866-12.58 6.956-14.1 6.141-1.019-0.5453-1.853-1.957-1.853-3.137 0-1.747 2.313-3.459 12.45-9.214 11.23-6.381 12.35-7.25 11.45-8.935-1.201-2.245-0.7835-2.397-13.33 4.854l-10.08 5.824-0.5164-4.518c-0.5513-4.823-1.824-7.756-4.231-9.754-1.876-1.557-1.92-4.699-0.0948-6.717 1.231-1.36 1.108-2.341-1.026-8.222-1.333-3.673-2.57-6.824-2.748-7.002-0.1783-0.1783-1.303 2.778-2.5 6.57-1.74 5.513-1.95 7.255-1.049 8.698 1.557 2.493 1.408 5.2-0.3661 6.673-2.321 1.926-3.507 4.699-4.153 9.706l-0.5942 4.605-10.56-6.196c-5.808-3.408-10.87-6.206-11.25-6.217-0.3774-0.01167-1.104 0.7598-1.615 1.714-0.8093 1.512 0.669 2.648 11.49 8.825 9.963 5.689 12.42 7.503 12.42 9.187 0 1.154-0.6466 2.635-1.437 3.29-1.189 0.987-3.623-0.0518-14.12-6.028-11.4-6.489-12.81-7.06-13.88-5.635-1.476 1.962-1.22 2.173 11.4 9.382 5.168 2.952 9.396 5.673 9.396 6.048 0 0.3744-1.446 1.37-3.214 2.213-2.233 1.065-3.879 2.951-5.391 6.178-2.48 5.292-3.342 6.05-6.908 6.07-1.879 0.0109-3.699 1.344-6.888 5.046-2.384 2.767-4.203 5.164-4.041 5.325 0.1614 0.1614 3.181-0.2385 6.709-0.8886 5.3-0.9765 6.764-1.671 8.415-3.99 1.873-2.631 2.292-2.769 6.638-2.193 3.634 0.482 5.467 0.1928 8.462-1.335 2.103-1.073 4.056-1.95 4.341-1.95 0.285 0 0.5182 5.827 0.5182 12.95v12.95l4.8-0.3973zm-16.91-13.24c-1.083-2.822 0.2344-4.917 4.515-7.18 5.02-2.654 7.597-2.216 7.597 1.294 0 1.804-1.021 2.988-4.164 4.83-4.703 2.756-7.169 3.084-7.947 1.057zm32.51-1.151c-2.93-1.766-4.08-3.091-4.08-4.698 0-3.372 3.142-3.855 7.928-1.22 4.253 2.342 5.92 6.035 3.436 7.61-1.913 1.213-2.814 1.004-7.284-1.692zm-15.05-8.574c-2.016-2.016-1.901-3.599 0.4153-5.695 1.59-1.439 2.34-1.551 4.32-0.6494 2.954 1.346 3.272 5.397 0.5392 6.859-2.523 1.35-3.506 1.254-5.275-0.5148zm0.6034-13.08c-0.6336-0.6336-1.152-3.389-1.152-6.122 0-5.5 1.553-7.676 4.754-6.66 1.68 0.5333 1.966 1.424 1.966 6.127 0 5.272-1.091 7.807-3.36 7.807-0.5808 0-1.574-0.5184-2.208-1.152zm98.69 44.68v-21.81l-10.56-33.9c-5.808-18.64-10.56-34.11-10.56-34.38 0-0.2675 5.076-0.479 11.28-0.4701l11.28 0.01622 5.255 21.53c2.89 11.84 5.38 21.4 5.534 21.25 0.1538-0.1538 2.428-7.797 5.053-16.99 2.625-9.188 5.34-18.65 6.032-21.03l1.258-4.32 21.45-0.5423-22.45 64.86-0.5037 23.52-0.5037 23.52-22.56 0.5409zm41.03 21.17c-0.3156-0.3156-0.3904-1.072-0.1661-1.68 0.3673-0.9964 12.59-81.68 14.86-98.07 0.5112-3.696 1.178-7.908 1.482-9.36l0.5524-2.64h32.01l3.203 18c1.762 9.9 5.935 33.34 9.273 52.08 3.339 18.74 6.362 35.92 6.719 38.16l0.6489 4.08h-10.64c-5.854 0-10.65-0.108-10.65-0.24-4e-3 -0.132-0.8646-5.208-1.914-11.28-1.049-6.072-1.91-11.36-1.914-11.76-6e-3 -0.6279-20.16-1.107-20.17-0.48-4e-3 0.132-0.8646 5.208-1.914 11.28-1.049 6.072-1.91 11.36-1.914 11.76-8e-3 0.8479-18.62 0.9877-19.46 0.1462zm39.16-48.63c-0.4433-1.938-4.36-24.21-6.203-35.28-0.4078-2.448-0.9643-3.696-1.285-2.88-0.3108 0.792-1.818 10.19-3.349 20.88l-2.784 19.44h7.058c6.825 0 7.041-0.071 6.564-2.16zm35.98-6.96v-56.16h31.51l2.007 8.88c5.612 24.83 7.116 31.02 7.701 31.68 0.3513 0.3955 2.56-8.568 4.909-19.92l4.27-20.64h35.06l-0.2477 55.92-0.2477 55.92-21.6 0.5429-0.1114-33.87c-0.0612-18.63-0.3118-33.01-0.5568-31.95-1.054 4.543-11.81 55.26-11.81 55.69 0 0.2587-3.871 0.4704-8.603 0.4704h-8.603l-0.9585-3.6c-0.5272-1.98-3.413-13.97-6.412-26.64s-5.781-24.34-6.18-25.92c-0.3996-1.584-0.7708 12.56-0.8249 31.44l-0.0983 34.32h-19.2zm92.16 55.7c0-0.4828 7.439-50.61 13.04-87.86 1.31-8.712 2.642-17.68 2.961-19.92l0.5797-4.08h32.17l0.9916 5.52c0.5454 3.036 4.497 25.18 8.781 49.2 4.284 24.02 8.361 46.58 9.06 50.13 0.699 3.548 1.042 6.68 0.7619 6.96-0.8228 0.8228-20.19 0.5823-20.71-0.2572-0.2604-0.4214-1.156-4.849-1.991-9.84-2.515-15.03-0.9919-13.39-12.43-13.39h-9.948l-3.677 23.52-9.795 0.2736c-5.387 0.1505-9.795 0.0382-9.795-0.2496zm39.35-47.3c-3e-3 -0.396-1.51-9.36-3.349-19.92-1.839-10.56-3.349-19.81-3.355-20.56-6e-3 -0.748-0.1835-1.18-0.3942-0.96-0.4422 0.4616-6.337 38.21-6.337 40.58 0 1.313 1.127 1.577 6.72 1.577 3.696 0 6.718-0.324 6.715-0.72zm34.57-8.4v-56.16h22.08v44.16h21.12v-44.16h22.1l-0.2477 55.92-0.2477 55.92-21.6 0.5429v-44.22h-21.12v44.16h-22.08zm71.04 54.42c0-0.9586 3.032-22.02 6.738-46.8 3.706-24.78 7.164-48.08 7.684-51.78 0.52-3.696 1.196-7.918 1.503-9.383l0.5574-2.663 31.97 0.5257 6.419 36c3.531 19.8 7.965 44.64 9.853 55.2 1.889 10.56 3.433 19.52 3.433 19.92s-4.745 0.72-10.54 0.72c-10.14 0-10.56-0.0814-11.04-2.16-0.5296-2.297-3.368-19.98-3.375-21.02-4e-3 -0.5804-20.16-1.193-20.17-0.6128-4e-3 0.1486-0.8646 5.238-1.914 11.31s-1.91 11.36-1.914 11.76c-4e-3 0.396-4.326 0.72-9.606 0.72-8.635 0-9.6-0.1752-9.6-1.743zm39.07-46.31c-0.2839-1.086-1.951-10.37-3.704-20.64-1.753-10.27-3.422-18.67-3.71-18.67-0.2872 0-1.74 8.532-3.227 18.96-1.488 10.43-2.906 19.72-3.151 20.64-0.396 1.493 0.3758 1.68 6.931 1.68 6.971 0 7.348-0.1085 6.86-1.974z" transform="translate(-23.04 -45.84)" style="fill:#e0e0e0;stroke-width:.96"/></g></svg>
