<?xml version="1.0" encoding="UTF-8"?>
<svg width="117mm" height="14.3mm" version="1.1" viewBox="0 0 117 14.3" xmlns="http://www.w3.org/2000/svg">
				<g transform="translate(-116 -134)">
								<g style="fill:#fff;stroke-width:.265" aria-label="radioimmaginaria">
												<path d="m119 136-0.124 1.35q0.682-1.45 1.98-1.53v3.62q-0.86 0-1.26 0.233-0.403 0.233-0.496 0.651-0.093 0.411-0.093 1.91v4.06h-3.13v-10.3z"/>
												<path d="m125 140h-2.94v-0.69q0-1.19 0.271-1.84 0.279-0.651 1.11-1.15 0.829-0.496 2.15-0.496 1.59 0 2.4 0.566 0.806 0.558 0.969 1.38 0.163 0.814 0.163 3.36v5.16h-3.05v-0.915q-0.287 0.55-0.744 0.829-0.45 0.271-1.08 0.271-0.822 0-1.51-0.457-0.682-0.465-0.682-2.02v-0.845q0-1.15 0.364-1.57t1.81-0.977q1.54-0.605 1.65-0.814t0.109-0.853q0-0.806-0.124-1.05-0.116-0.248-0.395-0.248-0.318 0-0.395 0.209-0.0775 0.202-0.0775 1.06zm0.992 1.41q-0.752 0.55-0.876 0.922-0.116 0.372-0.116 1.07 0 0.798 0.101 1.03 0.109 0.233 0.419 0.233 0.295 0 0.38-0.178 0.093-0.186 0.093-0.961z"/>
												<path d="m137 134v12.5h-3.13v-0.744q-0.45 0.465-0.946 0.698-0.496 0.233-1.04 0.233-0.729 0-1.26-0.38-0.535-0.388-0.69-0.891-0.147-0.504-0.147-1.64v-4.81q0-1.19 0.147-1.68 0.155-0.496 0.698-0.868 0.543-0.38 1.29-0.38 0.581 0 1.06 0.209 0.488 0.209 0.884 0.628v-2.91zm-3.13 4.85q0-0.566-0.101-0.76-0.093-0.194-0.38-0.194-0.279 0-0.38 0.178-0.093 0.171-0.093 0.775v5.04q0 0.628 0.093 0.829 0.093 0.194 0.357 0.194 0.302 0 0.403-0.217 0.101-0.225 0.101-1.09z"/>
												<path d="m141 134v1.64h-3.22v-1.64zm0 2.26v10.3h-3.22v-10.3z"/>
												<path d="m149 140v2.52q0 1.39-0.14 2.04-0.14 0.643-0.597 1.21-0.457 0.558-1.18 0.829-0.713 0.264-1.64 0.264-1.04 0-1.76-0.225-0.721-0.233-1.12-0.69-0.395-0.465-0.566-1.12-0.171-0.659-0.171-1.97v-2.64q0-1.43 0.31-2.24 0.31-0.806 1.12-1.29t2.06-0.488q1.05 0 1.81 0.318 0.76 0.31 1.17 0.814 0.411 0.504 0.558 1.04 0.155 0.535 0.155 1.63zm-3.13-0.775q0-0.791-0.0853-0.992-0.0853-0.209-0.364-0.209-0.279 0-0.372 0.209-0.093 0.202-0.093 0.992v4.64q0 0.729 0.093 0.953 0.093 0.217 0.364 0.217 0.279 0 0.364-0.202 0.093-0.202 0.093-0.868z" style="fill:#000"/>
												<path d="m154 134v1.64h-3.22v-1.64zm0 2.26v10.3h-3.22v-10.3z"/>
												<path d="m158 136-0.0543 0.977q0.364-0.581 0.868-0.868 0.504-0.295 1.15-0.295 1.26 0 1.98 1.16 0.395-0.581 0.891-0.868 0.496-0.295 1.1-0.295 0.798 0 1.32 0.388 0.527 0.388 0.674 0.953 0.147 0.558 0.147 1.82v7.31h-3.04v-6.71q0-1.32-0.093-1.63-0.0853-0.318-0.411-0.318-0.333 0-0.434 0.31-0.093 0.31-0.093 1.64v6.71h-3.04v-6.53q0-1.51-0.0775-1.81-0.0698-0.302-0.403-0.302-0.209 0-0.357 0.163-0.147 0.155-0.163 0.388-0.0155 0.225-0.0155 0.969v7.13h-3.04v-10.3z"/>
												<path d="m170 136-0.0543 0.977q0.364-0.581 0.868-0.868 0.504-0.295 1.15-0.295 1.26 0 1.98 1.16 0.395-0.581 0.891-0.868 0.496-0.295 1.1-0.295 0.798 0 1.32 0.388 0.527 0.388 0.674 0.953 0.147 0.558 0.147 1.82v7.31h-3.04v-6.71q0-1.32-0.093-1.63-0.0853-0.318-0.411-0.318-0.333 0-0.434 0.31-0.093 0.31-0.093 1.64v6.71h-3.04v-6.53q0-1.51-0.0775-1.81-0.0698-0.302-0.403-0.302-0.209 0-0.357 0.163-0.147 0.155-0.163 0.388-0.0155 0.225-0.0155 0.969v7.13h-3.04v-10.3z"/>
												<path d="m182 140h-2.94v-0.69q0-1.19 0.271-1.84 0.279-0.651 1.11-1.15 0.829-0.496 2.15-0.496 1.59 0 2.4 0.566 0.806 0.558 0.969 1.38 0.163 0.814 0.163 3.36v5.16h-3.05v-0.915q-0.287 0.55-0.744 0.829-0.45 0.271-1.08 0.271-0.822 0-1.51-0.457-0.682-0.465-0.682-2.02v-0.845q0-1.15 0.364-1.57 0.364-0.419 1.81-0.977 1.54-0.605 1.65-0.814t0.109-0.853q0-0.806-0.124-1.05-0.116-0.248-0.395-0.248-0.318 0-0.395 0.209-0.0775 0.202-0.0775 1.06zm0.992 1.41q-0.752 0.55-0.876 0.922-0.116 0.372-0.116 1.07 0 0.798 0.101 1.03 0.109 0.233 0.419 0.233 0.295 0 0.38-0.178 0.093-0.186 0.093-0.961z"/>
												<path d="m194 136v7.92q0 1.6-0.0775 2.08-0.0698 0.465-0.519 0.984-0.45 0.527-1.26 0.798-0.798 0.279-2.02 0.279-1.5 0-2.4-0.512-0.907-0.504-0.938-1.99h3.04q0 0.682 0.496 0.682 0.357 0 0.473-0.209 0.116-0.209 0.116-0.876v-0.775q-0.403 0.364-0.853 0.55-0.442 0.186-0.93 0.186-0.845 0-1.4-0.341-0.543-0.341-0.744-0.891-0.202-0.558-0.202-1.58v-3.74q0-1.47 0.527-2.11t1.6-0.643q0.589 0 1.07 0.24 0.488 0.24 0.868 0.721l0.225-0.775zm-3.14 2.73q0-0.705-0.0853-0.899-0.0775-0.194-0.357-0.194-0.271 0-0.388 0.225-0.109 0.217-0.109 0.868v3.46q0 0.69 0.0853 0.899 0.0853 0.202 0.357 0.202 0.31 0 0.403-0.248 0.093-0.248 0.093-1.12z"/>
												<path d="m199 134v1.64h-3.22v-1.64zm0 2.26v10.3h-3.22v-10.3z"/>
												<path d="m203 136-0.0543 0.946q0.341-0.566 0.829-0.845 0.496-0.287 1.14-0.287 0.806 0 1.32 0.38 0.512 0.38 0.659 0.961 0.147 0.574 0.147 1.92v7.21h-3.13v-7.12q0-1.06-0.0698-1.29-0.0698-0.233-0.388-0.233-0.333 0-0.419 0.271-0.0853 0.264-0.0853 1.43v6.95h-3.13v-10.3z"/>
												<path d="m211 140h-2.94v-0.69q0-1.19 0.271-1.84 0.279-0.651 1.11-1.15 0.829-0.496 2.15-0.496 1.59 0 2.4 0.566 0.806 0.558 0.969 1.38 0.163 0.814 0.163 3.36v5.16h-3.05v-0.915q-0.287 0.55-0.744 0.829-0.45 0.271-1.08 0.271-0.822 0-1.51-0.457-0.682-0.465-0.682-2.02v-0.845q0-1.15 0.364-1.57 0.364-0.419 1.81-0.977 1.54-0.605 1.65-0.814t0.109-0.853q0-0.806-0.124-1.05-0.116-0.248-0.395-0.248-0.318 0-0.395 0.209-0.0775 0.202-0.0775 1.06zm0.992 1.41q-0.752 0.55-0.876 0.922-0.116 0.372-0.116 1.07 0 0.798 0.101 1.03 0.109 0.233 0.419 0.233 0.295 0 0.38-0.178 0.093-0.186 0.093-0.961z"/>
												<path d="m219 136-0.124 1.35q0.682-1.45 1.98-1.53v3.62q-0.86 0-1.26 0.233-0.403 0.233-0.496 0.651-0.093 0.411-0.093 1.91v4.06h-3.13v-10.3z"/>
												<path d="m225 134v1.64h-3.22v-1.64zm0 2.26v10.3h-3.22v-10.3z"/>
												<path d="m229 140h-2.94v-0.69q0-1.19 0.271-1.84 0.279-0.651 1.11-1.15 0.829-0.496 2.15-0.496 1.59 0 2.4 0.566 0.806 0.558 0.969 1.38 0.163 0.814 0.163 3.36v5.16h-3.05v-0.915q-0.287 0.55-0.744 0.829-0.45 0.271-1.08 0.271-0.822 0-1.51-0.457-0.682-0.465-0.682-2.02v-0.845q0-1.15 0.364-1.57t1.81-0.977q1.54-0.605 1.65-0.814t0.109-0.853q0-0.806-0.124-1.05-0.116-0.248-0.395-0.248-0.318 0-0.395 0.209-0.0775 0.202-0.0775 1.06zm0.992 1.41q-0.752 0.55-0.876 0.922-0.116 0.372-0.116 1.07 0 0.798 0.101 1.03 0.109 0.233 0.419 0.233 0.295 0 0.38-0.178 0.093-0.186 0.093-0.961z"/>
								</g>
				</g>
</svg>
