<svg style="enable-background:new 0 0 242.667 242.667" version="1.1" viewBox="0 0 242.67 242.67" xml:space="preserve" xmlns="http://www.w3.org/2000/svg">
<path d="m162.44 86.061-54.044 50.235c-1.899 1.765-3.126 4.135-3.473 6.704l-1.839 13.641c-0.245 1.82-2.806 2.003-3.308 0.237l-7.08-24.875c-0.808-2.839 0.37-5.87 2.883-7.418l65.484-40.334c1.175-0.723 2.388 0.87 1.377 1.81zm80.224-86.061v242.67h-242.67v-242.67h242.67zm-54.002 58.301-137.51 53.047c-3.39 1.308-3.364 6.114 0.04 7.385l33.505 12.507 12.97 41.708c0.831 2.671 4.099 3.656 6.267 1.888l18.677-15.226c1.958-1.596 4.744-1.674 6.788-0.19l33.689 24.459c2.319 1.684 5.604 0.414 6.187-2.392l24.675-118.7c0.637-3.061-2.37-5.613-5.288-4.487z" style="fill:#fcc920"/>















</svg>
