<?xml version="1.0" encoding="iso-8859-1"?>
<!-- Generator: Adobe Illustrator 16.0.0, SVG Export Plug-In . SVG Version: 6.00 Build 0)  -->
<!DOCTYPE svg PUBLIC "-//W3C//DTD SVG 1.1//EN" "http://www.w3.org/Graphics/SVG/1.1/DTD/svg11.dtd">
<svg version="1.1" id="Capa_1" xmlns="http://www.w3.org/2000/svg" xmlns:xlink="http://www.w3.org/1999/xlink" x="0px" y="0px"
	 width="569.16px" height="569.16px" viewBox="0 0 569.16 569.16" style="enable-background:new 0 0 569.16 569.16;"
	 xml:space="preserve">
<g>
	<g>
		<path d="M220.875,515.154H348.29c10.549,0,19.08-8.534,19.08-19.079s-8.535-19.079-19.08-19.079H220.875
			c-10.545,0-19.079,8.534-19.079,19.079S210.328,515.154,220.875,515.154z"/>
		<path d="M220.875,569.16H348.29c10.549,0,19.08-8.534,19.08-19.079s-8.535-19.079-19.08-19.079H220.875
			c-10.545,0-19.079,8.534-19.079,19.079S210.328,569.16,220.875,569.16z"/>
		<path d="M284.582,0C179.195,0,93.784,85.411,93.784,190.797c0,66.962,34.896,125.234,87.143,159.251
			c4.489,2.922,8.256,9.434,8.256,14.792v54.915c0,21.092,17.068,38.158,38.158,38.158h114.478
			c21.053,0,38.158-17.069,38.158-38.158v-54.918c0-5.358,3.77-11.867,8.262-14.789c52.242-33.987,87.137-92.29,87.137-159.251
			C475.378,85.411,389.968,0,284.582,0z"/>
	</g>
</g>
<g>
</g>
<g>
</g>
<g>
</g>
<g>
</g>
<g>
</g>
<g>
</g>
<g>
</g>
<g>
</g>
<g>
</g>
<g>
</g>
<g>
</g>
<g>
</g>
<g>
</g>
<g>
</g>
<g>
</g>
</svg>
