<svg style="enable-background:new 0 0 455 455" version="1.1" viewBox="0 0 455 455" xml:space="preserve" xmlns="http://www.w3.org/2000/svg">
<path d="m0 0v455h455v-455h-455zm140.6 297.5c-38.998 0-70.599-31.342-70.599-69.983 0-38.675 31.601-70.018 70.599-70.018 38.981 0 70.582 31.343 70.582 70.018 0 38.641-31.6 69.983-70.582 69.983zm173.8 0c-38.981 0-70.582-31.343-70.582-69.983 0-38.675 31.601-70.018 70.582-70.018 38.999 0 70.599 31.343 70.599 70.018 0 38.641-31.601 69.983-70.599 69.983z" style="clip-rule:evenodd;fill-rule:evenodd"/>















<path d="m0 227.43v-227.84h455v455.68h-455zm154.5 68.493c20.71-3.917 39.637-18.289 49.06-37.254 5.4703-11.009 7.299-19.102 7.2124-31.918-0.0534-7.9019-0.35842-10.621-1.8064-16.099-6.7905-25.69-26.163-44.738-52.089-51.218-7.8376-1.9588-26.092-1.7816-33.955 0.32967-20.474 5.497-37.425 19.619-46.312 38.584-4.4327 9.4591-6.1328 17.242-6.2043 28.403-0.08424 13.155 1.7837 21.231 7.4929 32.394 14.339 28.038 44.994 42.756 76.601 36.778zm173.85 0c16.279-3.0789 32.29-13.115 42.572-26.685 4.7078-6.2131 9.763-16.793 11.864-24.83 1.5333-5.8661 1.7751-8.1785 1.7751-16.978 0-8.7728-0.24198-11.101-1.7436-16.778-3.3669-12.728-9.247-22.997-18.421-32.171-6.4618-6.4618-11.853-10.236-20.344-14.243-10.508-4.959-15.79-6.035-29.624-6.035-13.849 0-19.115 1.0752-29.675 6.0591-8.3082 3.921-13.071 7.152-19.324 13.11-10.27 9.7857-17.257 22.529-20.371 37.155-1.1183 5.2526-1.1183 20.553 0 25.806 3.1858 14.964 9.784 26.96 20.585 37.425 16.449 15.938 39.372 22.578 62.707 18.165z" style="fill:#fcc920;stroke-width:.6791"/></svg>
