<svg xmlns="http://www.w3.org/2000/svg" id="Bold" width="512" height="512" enable-background="new 0 0 24 24" version="1.1" viewBox="0 0 24 24"><path d="m0.02631 0.030691c-0.037295 8.0377-0.084415 15.941-0.049798 23.979l8.2894-0.014915c0.61219 0.001291 0.75905-0.26619 0.75905-0.57919 0-0.28-0.01-1.022-0.015-2.005-3.338 0.711-4.042-1.582-4.042-1.582-0.546-1.361-1.335-1.725-1.335-1.725-1.087-0.731 0.084-0.716 0.084-0.716 1.205 0.082 1.838 1.215 1.838 1.215 1.07 1.803 2.809 1.282 3.495 0.981 0.108-0.763 0.417-1.282 0.76-1.577-2.665-0.295-5.466-1.309-5.466-5.827 0-1.287 0.465-2.339 1.235-3.164-0.135-0.298-0.54-1.497 0.105-3.121 0 0 1.005-0.316 3.3 1.209 0.96-0.262 1.98-0.392 3-0.398 1.02 6e-3 2.04 0.136 3 0.398 2.28-1.525 3.285-1.209 3.285-1.209 0.645 1.624 0.24 2.823 0.12 3.121 0.765 0.825 1.23 1.877 1.23 3.164 0 4.53-2.805 5.527-5.475 5.817 0.42 0.354 0.81 1.077 0.81 2.182 0 1.578-0.015 2.846-0.015 3.229 0 0.309 0.11248 0.56829 0.73967 0.58438l8.4072 0.04408c-0.10977-7.9928-0.080077-15.986-0.056972-23.979-8.0009 0.021753-16.002 0.0042201-24.003-0.026287z" style="fill:#fcc920"/></svg>