<svg xmlns="http://www.w3.org/2000/svg" width="569.2" height="569.2" version="1.1" viewBox="0 0 569.2 569.2" style="enable-background:new 0 0 569.16 569.16"><path d="m220.9 515.2h127.4c10.55 0 19.08-8.534 19.08-19.08s-8.535-19.08-19.08-19.08h-127.4c-10.54 0-19.08 8.534-19.08 19.08s8.532 19.08 19.08 19.08z" style="fill:#fff"/><path d="m220.9 569.2h127.4c10.55 0 19.08-8.534 19.08-19.08s-8.535-19.08-19.08-19.08h-127.4c-10.54 0-19.08 8.534-19.08 19.08s8.532 19.08 19.08 19.08z" style="fill:#fff"/><path d="m284.6 0c-105.4 0-190.8 85.41-190.8 190.8 0 66.96 34.9 125.2 87.14 159.3 4.489 2.922 8.256 9.434 8.256 14.79v54.92c0 21.09 17.07 38.16 38.16 38.16h114.5c21.05 0 38.16-17.07 38.16-38.16v-54.92c0-5.358 3.77-11.87 8.262-14.79 52.24-33.99 87.14-92.29 87.14-159.3 2e-3 -105.4-85.41-190.8-190.8-190.8z" style="fill:#fff"/></svg>