<svg width="65.478mm" height="65.478mm" version="1.1" viewBox="0 0 232.01 232.01" xmlns="http://www.w3.org/2000/svg"><rect x="-5.5511e-17" y="-5.5511e-17" width="232.01" height="232.01" style="fill:#fcc920;stroke-width:.97144"/><path d="m210.99 137.17c-2.9168 15.006-26.124 31.428-52.777 34.611-13.899 1.6584-27.583 3.1827-42.175 2.5134-23.864-1.0934-42.694-5.696-42.694-5.696 0 2.3231 0.14326 4.5351 0.42978 6.6037 3.1024 23.551 23.353 24.962 42.535 25.62 19.361 0.66243 36.6-4.7734 36.6-4.7734l0.79538 17.503s-13.542 7.2719-37.666 8.6094c-13.303 0.73121-29.82-0.33465-49.058-5.4267-41.724-11.044-48.9-55.52-49.998-100.65-0.33466-13.399-0.12836-26.033-0.12836-36.6 0-46.146 30.235-59.672 30.235-59.672 15.245-7.0014 41.405-9.9457 68.6-10.168h0.66816c27.195 0.22234 53.372 3.1666 68.616 10.168 0 0 30.234 13.526 30.234 59.672 0 0 0.37936 34.047-4.2164 57.685" fill="#2b90d9" style="fill:#0e0e0e;stroke-width:.91687"/><path d="m179.55 83.064v55.875h-22.137v-54.233c0-11.432-4.8101-17.235-14.431-17.235-10.638 0-15.97 6.8834-15.97 20.494v29.685h-22.006v-29.685c0-13.611-5.3327-20.494-15.971-20.494-9.6214 0-14.431 5.8026-14.431 17.235v54.233h-22.137v-55.875c0-11.42 2.9076-20.494 8.7481-27.208 6.0227-6.7138 13.91-10.155 23.701-10.155 11.328 0 19.906 4.354 25.578 13.063l5.5138 9.2432 5.515-9.2432c5.6708-8.7091 14.249-13.063 25.578-13.063 9.7898 0 17.677 3.4417 23.701 10.155 5.8393 6.7138 8.7469 15.788 8.7469 27.208" fill="#fff" style="fill:#fcc920;stroke-width:.91687"/></svg>
