<svg xmlns="http://www.w3.org/2000/svg" xmlns:svg="http://www.w3.org/2000/svg" id="svg1557" width="661.62" height="197.119" version="1.1" viewBox="0 0 175.054 52.154"><defs id="defs1551"><rect id="rect2122" width="209.874" height="137.77" x="0" y="0"/></defs><metadata id="metadata1554"/><g id="layer1" transform="translate(-19.128893,-0.60012396)"><g style="font-style:normal;font-weight:400;font-size:26.4583px;line-height:1;font-family:sans-serif;white-space:pre;shape-inside:url(#rect2122);fill:#000;fill-opacity:1;stroke:none" id="text2120" aria-label="Philosophy of Engineering"><path id="path2126" d="m 31.712089,7.4084852 q 0,1.2789901 -0.452169,2.3771129 -0.439249,1.0852039 -1.240232,1.8861869 -0.99477,0.994771 -2.351275,1.498615 -1.356505,0.490926 -3.423559,0.490926 h -2.55798 v 7.170095 H 19.128893 V 1.594894 h 5.219313 q 1.731159,0 2.932634,0.2971391 1.201476,0.28422 2.13165,0.9043364 1.098123,0.7363883 1.692401,1.834511 0.607198,1.0981228 0.607198,2.7776047 z m -2.661333,0.064595 q 0,-0.9947701 -0.348816,-1.7311583 -0.348815,-0.7363877 -1.059365,-1.201475 -0.620117,-0.4004918 -1.4211,-0.56844 Q 25.43341,3.7911396 24.219016,3.7911396 h -2.532142 v 7.6868594 h 2.157488 q 1.550291,0 2.519223,-0.271301 0.968932,-0.28422 1.576129,-0.891417 0.607197,-0.6201165 0.85266,-1.3048284 0.258382,-0.6847119 0.258382,-1.5373724 z" style="font-size:26.4583px;text-align:center;text-anchor:middle;fill:#20ce88;fill-opacity:1"/><path id="path2128" d="m 46.969536,20.831421 h -2.428789 v -8.216542 q 0,-0.99477 -0.116272,-1.860349 -0.116272,-0.8784983 -0.42633,-1.3694237 -0.322977,-0.5426019 -0.930174,-0.8009837 -0.607198,-0.2713009 -1.57613,-0.2713009 -0.99477,0 -2.079973,0.4909254 -1.085204,0.4909255 -2.079974,1.2531519 V 20.831421 H 34.903105 V 0.72931487 h 2.428789 V 8.0027635 q 1.13688,-0.9430937 2.351275,-1.4727765 1.214394,-0.5296827 2.493384,-0.5296827 2.338356,0 3.56567,1.4081809 1.227313,1.408181 1.227313,4.0565948 z" style="font-size:26.4583px;text-align:center;text-anchor:middle;fill:#20ce88;fill-opacity:1"/><path id="path2130" d="M 54.255903,3.984926 H 51.517056 V 1.4657031 h 2.738847 z M 54.100874,20.831421 H 51.672085 V 6.4007961 h 2.428789 z" style="font-size:26.4583px;text-align:center;text-anchor:middle;fill:#20ce88;fill-opacity:1"/><path id="path2132" d="M 61.387243,20.831421 H 58.958454 V 0.72931487 h 2.428789 z" style="font-size:26.4583px;text-align:center;text-anchor:middle;fill:#20ce88;fill-opacity:1"/><path id="path2134" d="m 78.517957,13.622568 q 0,3.526912 -1.808673,5.568129 -1.808673,2.041216 -4.844659,2.041216 -3.061825,0 -4.870498,-2.041216 -1.795754,-2.041217 -1.795754,-5.568129 0,-3.526912 1.795754,-5.5681282 1.808673,-2.0541355 4.870498,-2.0541355 3.035986,0 4.844659,2.0541355 1.808673,2.0412162 1.808673,5.5681282 z m -2.506304,0 q 0,-2.803443 -1.098123,-4.1599472 -1.098123,-1.3694237 -3.048905,-1.3694237 -1.976621,0 -3.074744,1.3694237 -1.085204,1.3565042 -1.085204,4.1599472 0,2.71301 1.098123,4.121191 1.098123,1.395261 3.061825,1.395261 1.937863,0 3.035986,-1.382342 1.111042,-1.395262 1.111042,-4.13411 z" style="font-size:26.4583px;text-align:center;text-anchor:middle;fill:#20ce88;fill-opacity:1"/><path id="path2136" d="m 92.599767,16.671474 q 0,1.976621 -1.640725,3.242692 -1.627805,1.266071 -4.457086,1.266071 -1.601968,0 -2.945553,-0.374654 -1.330667,-0.387572 -2.235003,-0.839741 v -2.725928 h 0.129191 q 1.149799,0.865579 2.55798,1.382343 1.408181,0.503844 2.70009,0.503844 1.601967,0 2.506304,-0.516763 0.904336,-0.516764 0.904336,-1.627806 0,-0.85266 -0.490925,-1.291909 -0.490926,-0.439249 -1.886188,-0.749307 -0.516763,-0.116272 -1.356504,-0.271301 -0.826822,-0.155029 -1.511534,-0.335897 -1.899106,-0.503844 -2.70009,-1.472776 -0.788065,-0.981851 -0.788065,-2.402951 0,-0.8914175 0.361735,-1.679482 0.374654,-0.7880646 1.123961,-1.408181 0.723469,-0.6071973 1.834511,-0.9560128 1.123961,-0.3617346 2.506304,-0.3617346 1.291909,0 2.609656,0.3229773 1.330667,0.3100582 2.209165,0.7622264 V 9.7339217 H 91.902136 Q 90.971961,9.0492099 89.641295,8.5841226 88.310628,8.1061162 87.031638,8.1061162 q -1.330666,0 -2.247922,0.5167637 -0.917255,0.5038445 -0.917255,1.5115341 0,0.891417 0.555521,1.343585 0.542602,0.452168 1.756996,0.736388 0.671793,0.155029 1.498615,0.310059 0.839741,0.155029 1.395262,0.28422 1.692401,0.387572 2.609656,1.330666 0.917256,0.956013 0.917256,2.532142 z" style="font-size:26.4583px;text-align:center;text-anchor:middle;fill:#20ce88;fill-opacity:1"/><path id="path2138" d="m 108.3869,13.622568 q 0,3.526912 -1.80867,5.568129 -1.80868,2.041216 -4.84466,2.041216 -3.061828,0 -4.870501,-2.041216 -1.795753,-2.041217 -1.795753,-5.568129 0,-3.526912 1.795753,-5.5681282 1.808673,-2.0541355 4.870501,-2.0541355 3.03598,0 4.84466,2.0541355 1.80867,2.0412162 1.80867,5.5681282 z m -2.5063,0 q 0,-2.803443 -1.09813,-4.1599472 -1.09812,-1.3694237 -3.0489,-1.3694237 -1.976624,0 -3.074747,1.3694237 -1.085204,1.3565042 -1.085204,4.1599472 0,2.71301 1.098123,4.121191 1.098123,1.395261 3.061828,1.395261 1.93786,0 3.03598,-1.382342 1.11105,-1.395262 1.11105,-4.13411 z" style="font-size:26.4583px;text-align:center;text-anchor:middle;fill:#20ce88;fill-opacity:1"/><path id="path2140" d="m 124.85874,13.441701 q 0,1.756996 -0.50384,3.216854 -0.50385,1.446938 -1.4211,2.454627 -0.85266,0.956013 -2.01538,1.485696 -1.1498,0.516763 -2.44171,0.516763 -1.12396,0 -2.04122,-0.245462 -0.90433,-0.245463 -1.84743,-0.762227 v 6.046135 h -2.42879 V 6.4007961 h 2.42879 v 1.5115337 q 0.96894,-0.8139028 2.17041,-1.3565046 1.2144,-0.5555209 2.58382,-0.5555209 2.60966,0 4.05659,1.976621 1.45986,1.9637019 1.45986,5.4647757 z m -2.5063,0.0646 q 0,-2.609656 -0.89142,-3.9015652 -0.89142,-1.2919091 -2.73885,-1.2919091 -1.04644,0 -2.10581,0.4521682 -1.05936,0.4521682 -2.0283,1.1885564 v 8.1777847 q 1.03353,0.465088 1.76992,0.633036 0.74931,0.167948 1.6924,0.167948 2.0283,0 3.16518,-1.369424 1.13688,-1.369423 1.13688,-4.056595 z" style="font-size:26.4583px;text-align:center;text-anchor:middle;fill:#20ce88;fill-opacity:1"/><path id="path2142" d="m 140.71046,20.831421 h -2.42879 v -8.216542 q 0,-0.99477 -0.11627,-1.860349 -0.11627,-0.8784983 -0.42633,-1.3694237 -0.32298,-0.5426019 -0.93017,-0.8009837 -0.6072,-0.2713009 -1.57613,-0.2713009 -0.99477,0 -2.07998,0.4909254 -1.0852,0.4909255 -2.07997,1.2531519 v 10.774522 h -2.42879 V 0.72931487 h 2.42879 V 8.0027635 q 1.13688,-0.9430937 2.35127,-1.4727765 1.2144,-0.5296827 2.49339,-0.5296827 2.33835,0 3.56567,1.4081809 1.22731,1.408181 1.22731,4.0565948 z" style="font-size:26.4583px;text-align:center;text-anchor:middle;fill:#20ce88;fill-opacity:1"/><path id="path2144" d="m 157.86702,6.4007961 -8.42325,19.7532909 h -2.59673 l 2.68717,-6.020297 -5.749,-13.7329939 h 2.6355 l 4.43124,10.6970079 4.47001,-10.6970079 z" style="font-size:26.4583px;text-align:center;text-anchor:middle;fill:#20ce88;fill-opacity:1"/><path id="path2146" d="m 182.64584,13.622568 q 0,3.526912 -1.80867,5.568129 -1.80867,2.041216 -4.84466,2.041216 -3.06183,0 -4.8705,-2.041216 -1.79575,-2.041217 -1.79575,-5.568129 0,-3.526912 1.79575,-5.5681282 1.80867,-2.0541355 4.8705,-2.0541355 3.03599,0 4.84466,2.0541355 1.80867,2.0412162 1.80867,5.5681282 z m -2.5063,0 q 0,-2.803443 -1.09813,-4.1599472 -1.09812,-1.3694237 -3.0489,-1.3694237 -1.97662,0 -3.07475,1.3694237 -1.0852,1.3565042 -1.0852,4.1599472 0,2.71301 1.09812,4.121191 1.09813,1.395261 3.06183,1.395261 1.93786,0 3.03599,-1.382342 1.11104,-1.395262 1.11104,-4.13411 z" style="font-size:26.4583px;text-align:center;text-anchor:middle;fill:#20ce88;fill-opacity:1"/><path id="path2148" d="M 194.18259,3.0805895 H 194.0534 Q 193.65291,2.9643177 193.00695,2.8480459 192.361,2.718855 191.87007,2.718855 q -1.56321,0 -2.27376,0.6976309 -0.69763,0.6847119 -0.69763,2.4933847 v 0.4909255 h 4.37957 V 8.4420126 H 188.9762 V 20.831421 h -2.42879 V 8.4420126 h -1.64073 V 6.4007961 h 1.64073 V 5.9227897 q 0,-2.5708992 1.27899,-3.9403229 1.27899,-1.38234284 3.69486,-1.38234284 0.8139,0 1.45985,0.0775145 0.65888,0.0775146 1.20148,0.18086728 z" style="font-size:26.4583px;text-align:center;text-anchor:middle;fill:#20ce88;fill-opacity:1"/><path id="path2150" d="M 41.517679,47.289721 H 28.84405 V 28.053194 h 12.673629 v 2.27376 H 31.402031 v 5.270989 h 10.115648 v 2.27376 H 31.402031 v 7.144258 h 10.115648 z" style="font-size:26.4583px;text-align:center;text-anchor:middle;fill:#20ce88;fill-opacity:1"/><path id="path2152" d="m 57.459839,47.289721 h -2.42879 v -8.216542 q 0,-0.99477 -0.116271,-1.860349 -0.116272,-0.878499 -0.42633,-1.369424 -0.322978,-0.542602 -0.930175,-0.800984 -0.607197,-0.271301 -1.576129,-0.271301 -0.99477,0 -2.079974,0.490926 -1.085204,0.490925 -2.079974,1.253152 V 47.289721 H 45.393407 V 32.859096 h 2.428789 v 1.601967 q 1.13688,-0.943094 2.351275,-1.472776 1.214395,-0.529683 2.493385,-0.529683 2.338355,0 3.565669,1.408181 1.227314,1.408181 1.227314,4.056595 z" style="font-size:26.4583px;text-align:center;text-anchor:middle;fill:#20ce88;fill-opacity:1"/><path id="path2154" d="m 73.841247,45.648996 q 0,3.669022 -1.666563,5.387262 -1.666562,1.718239 -5.128879,1.718239 -1.149799,0 -2.247922,-0.167948 -1.085204,-0.155029 -2.144569,-0.452169 v -2.480465 h 0.129191 q 0.594278,0.232543 1.886187,0.56844 1.291909,0.348815 2.583818,0.348815 1.240233,0 2.054136,-0.297139 0.813903,-0.297139 1.266071,-0.826822 0.452168,-0.503844 0.645955,-1.214394 0.193786,-0.71055 0.193786,-1.589049 v -1.317747 q -1.098123,0.878498 -2.105812,1.317747 -0.99477,0.426331 -2.545061,0.426331 -2.583818,0 -4.108271,-1.86035 -1.511534,-1.873268 -1.511534,-5.270989 0,-1.860349 0.516764,-3.203935 0.529683,-1.356504 1.434019,-2.338355 0.839741,-0.917256 2.041216,-1.4211 1.201476,-0.516764 2.390032,-0.516764 1.253152,0 2.092893,0.258382 0.85266,0.245462 1.795754,0.762226 l 0.155029,-0.620116 h 2.27376 z M 71.412458,43.32356 v -7.867727 q -0.968932,-0.439249 -1.808673,-0.620116 -0.826822,-0.193787 -1.653644,-0.193787 -2.002459,0 -3.152258,1.343586 -1.149799,1.343585 -1.149799,3.901566 0,2.428789 0.85266,3.681941 0.85266,1.253152 2.829281,1.253152 1.059365,0 2.118731,-0.400492 1.072285,-0.413411 1.963702,-1.098123 z" style="font-size:26.4583px;text-align:center;text-anchor:middle;fill:#20ce88;fill-opacity:1"/><path id="path2156" d="M 81.230967,30.443226 H 78.49212 v -2.519223 h 2.738847 z M 81.075938,47.289721 H 78.647149 V 32.859096 h 2.428789 z" style="font-size:26.4583px;text-align:center;text-anchor:middle;fill:#20ce88;fill-opacity:1"/><path id="path2158" d="m 97.974111,47.289721 h -2.428789 v -8.216542 q 0,-0.99477 -0.116272,-1.860349 -0.116272,-0.878499 -0.42633,-1.369424 -0.322977,-0.542602 -0.930174,-0.800984 -0.607198,-0.271301 -1.57613,-0.271301 -0.99477,0 -2.079973,0.490926 -1.085204,0.490925 -2.079974,1.253152 V 47.289721 H 85.90768 V 32.859096 h 2.428789 v 1.601967 q 1.13688,-0.943094 2.351275,-1.472776 1.214394,-0.529683 2.493384,-0.529683 2.338356,0 3.56567,1.408181 1.227313,1.408181 1.227313,4.056595 z" style="font-size:26.4583px;text-align:center;text-anchor:middle;fill:#20ce88;fill-opacity:1"/><path id="path2160" d="m 114.73017,40.326331 h -10.63241 q 0,1.330666 0.40049,2.325436 0.40049,0.981851 1.09812,1.614887 0.6718,0.620116 1.58905,0.930174 0.93018,0.310058 2.04122,0.310058 1.47278,0 2.95847,-0.581359 1.49862,-0.594278 2.13165,-1.162718 h 0.12919 v 2.648414 q -1.22731,0.516764 -2.5063,0.865579 -1.27899,0.348815 -2.68717,0.348815 -3.59151,0 -5.60689,-1.937863 -2.01538,-1.950783 -2.01538,-5.529372 0,-3.539831 1.92495,-5.619804 1.93786,-2.079974 5.09012,-2.079974 2.91971,0 4.49584,1.70532 1.58905,1.70532 1.58905,4.844659 z m -2.36419,-1.86035 q -0.0129,-1.912025 -0.96893,-2.958471 -0.9431,-1.046447 -2.88096,-1.046447 -1.95078,0 -3.1135,1.149799 -1.1498,1.149799 -1.30483,2.855119 z" style="font-size:26.4583px;text-align:center;text-anchor:middle;fill:#20ce88;fill-opacity:1"/><path id="path2162" d="m 130.49146,40.326331 h -10.63241 q 0,1.330666 0.40049,2.325436 0.40049,0.981851 1.09813,1.614887 0.67179,0.620116 1.58904,0.930174 0.93018,0.310058 2.04122,0.310058 1.47278,0 2.95847,-0.581359 1.49862,-0.594278 2.13165,-1.162718 h 0.12919 v 2.648414 q -1.22731,0.516764 -2.5063,0.865579 -1.27899,0.348815 -2.68717,0.348815 -3.59151,0 -5.60689,-1.937863 -2.01538,-1.950783 -2.01538,-5.529372 0,-3.539831 1.92495,-5.619804 1.93786,-2.079974 5.09012,-2.079974 2.91972,0 4.49584,1.70532 1.58905,1.70532 1.58905,4.844659 z m -2.36419,-1.86035 q -0.0129,-1.912025 -0.96893,-2.958471 -0.9431,-1.046447 -2.88096,-1.046447 -1.95078,0 -3.1135,1.149799 -1.1498,1.149799 -1.30483,2.855119 z" style="font-size:26.4583px;text-align:center;text-anchor:middle;fill:#20ce88;fill-opacity:1"/><path id="path2164" d="m 143.17801,35.50751 h -0.12919 q -0.5426,-0.129191 -1.05937,-0.180868 -0.50384,-0.06459 -1.20147,-0.06459 -1.12396,0 -2.17041,0.503844 -1.04644,0.490926 -2.01538,1.27899 v 10.24484 h -2.42879 v -14.43063 h 2.42879 v 2.13165 q 1.44694,-1.162718 2.54506,-1.640725 1.11105,-0.490925 2.26085,-0.490925 0.63303,0 0.91725,0.03876 0.28422,0.02584 0.85266,0.116272 z" style="font-size:26.4583px;text-align:center;text-anchor:middle;fill:#20ce88;fill-opacity:1"/><path id="path2166" d="m 148.10018,30.443226 h -2.73884 v -2.519223 h 2.73884 z m -0.15503,16.846495 h -2.42878 V 32.859096 h 2.42878 z" style="font-size:26.4583px;text-align:center;text-anchor:middle;fill:#20ce88;fill-opacity:1"/><path id="path2168" d="m 164.84333,47.289721 h -2.42879 v -8.216542 q 0,-0.99477 -0.11627,-1.860349 -0.11627,-0.878499 -0.42633,-1.369424 -0.32298,-0.542602 -0.93018,-0.800984 -0.60719,-0.271301 -1.57613,-0.271301 -0.99477,0 -2.07997,0.490926 -1.0852,0.490925 -2.07997,1.253152 V 47.289721 H 152.7769 V 32.859096 h 2.42879 v 1.601967 q 1.13688,-0.943094 2.35127,-1.472776 1.2144,-0.529683 2.49339,-0.529683 2.33835,0 3.56566,1.408181 1.22732,1.408181 1.22732,4.056595 z" style="font-size:26.4583px;text-align:center;text-anchor:middle;fill:#20ce88;fill-opacity:1"/><path id="path2170" d="m 181.22474,45.648996 q 0,3.669022 -1.66656,5.387262 -1.66656,1.718239 -5.12888,1.718239 -1.1498,0 -2.24792,-0.167948 -1.08521,-0.155029 -2.14457,-0.452169 v -2.480465 h 0.12919 q 0.59428,0.232543 1.88619,0.56844 1.29191,0.348815 2.58382,0.348815 1.24023,0 2.05413,-0.297139 0.8139,-0.297139 1.26607,-0.826822 0.45217,-0.503844 0.64596,-1.214394 0.19378,-0.71055 0.19378,-1.589049 v -1.317747 q -1.09812,0.878498 -2.10581,1.317747 -0.99477,0.426331 -2.54506,0.426331 -2.58382,0 -4.10827,-1.86035 -1.51153,-1.873268 -1.51153,-5.270989 0,-1.860349 0.51676,-3.203935 0.52968,-1.356504 1.43402,-2.338355 0.83974,-0.917256 2.04121,-1.4211 1.20148,-0.516764 2.39004,-0.516764 1.25315,0 2.09289,0.258382 0.85266,0.245462 1.79575,0.762226 l 0.15503,-0.620116 h 2.27376 z m -2.42879,-2.325436 v -7.867727 q -0.96893,-0.439249 -1.80867,-0.620116 -0.82682,-0.193787 -1.65364,-0.193787 -2.00246,0 -3.15226,1.343586 -1.1498,1.343585 -1.1498,3.901566 0,2.428789 0.85266,3.681941 0.85266,1.253152 2.82928,1.253152 1.05937,0 2.11873,-0.400492 1.07229,-0.413411 1.9637,-1.098123 z" style="font-size:26.4583px;text-align:center;text-anchor:middle;fill:#20ce88;fill-opacity:1"/></g></g></svg>