<svg xmlns="http://www.w3.org/2000/svg" width="145.6mm" height="46.77mm" version="1.1" viewBox="0 0 145.6 46.77"><g style="shape-inside:url(#rect841);white-space:pre" aria-label="Philosophy of Engineering" transform="translate(-32.94 -.7499)"><path d="m37.89 2.536q3.691 0 5.667 1.31 1.976 1.286 1.976 4.239 0 2.977-2 4.31-2 1.31-5.715 1.31h-1.167v5.524h-3.715v-16.26q1.214-0.2381 2.572-0.3334 1.357-0.09525 2.381-0.09525zm0.2381 3.167q-0.4048 0-0.8096 0.02381-0.381 0.02381-0.6668 0.04762v4.762h1.167q1.929 0 2.905-0.5239 0.9763-0.5239 0.9763-1.953 0-0.6906-0.2619-1.143-0.2381-0.4524-0.7144-0.7144-0.4524-0.2858-1.119-0.381-0.6668-0.1191-1.476-0.1191z"/><path d="m47.36 19.23v-17.91l3.548-0.5715v6.001q0.3572-0.1191 0.9049-0.2143 0.5715-0.1191 1.095-0.1191 1.524 0 2.524 0.4286 1.024 0.4048 1.619 1.167 0.6191 0.762 0.8572 1.81 0.2619 1.048 0.2619 2.334v7.072h-3.548v-6.644q0-1.714-0.4524-2.429-0.4286-0.7144-1.619-0.7144-0.4762 0-0.9049 0.09525-0.4048 0.07144-0.7382 0.1667v9.525z"/><path d="m64.28 19.23h-3.548v-12.53h3.548zm0.3334-16.14q0 0.9763-0.6429 1.548-0.6191 0.5477-1.476 0.5477t-1.5-0.5477q-0.6191-0.5715-0.6191-1.548t0.6191-1.524q0.6429-0.5715 1.5-0.5715t1.476 0.5715q0.6429 0.5477 0.6429 1.524z"/><path d="m71.93 19.47q-1.548-0.02381-2.524-0.3334-0.9525-0.3096-1.524-0.8572-0.5477-0.5715-0.762-1.357-0.1905-0.8096-0.1905-1.81v-13.79l3.548-0.5715v13.64q0 0.4762 0.07144 0.8572t0.2619 0.6429q0.2143 0.2619 0.5953 0.4286 0.381 0.1667 1.024 0.2143z"/><path d="m85.5 12.94q0 1.476-0.4286 2.715-0.4286 1.214-1.238 2.096-0.8096 0.8572-1.953 1.334-1.119 0.4762-2.524 0.4762-1.381 0-2.524-0.4762-1.119-0.4762-1.929-1.334-0.8096-0.8811-1.262-2.096-0.4524-1.238-0.4524-2.715t0.4524-2.691q0.4762-1.214 1.286-2.072 0.8334-0.8572 1.953-1.334 1.143-0.4762 2.476-0.4762 1.357 0 2.476 0.4762 1.143 0.4762 1.953 1.334t1.262 2.072q0.4524 1.214 0.4524 2.691zm-3.62 0q0-1.643-0.6668-2.572-0.6429-0.9525-1.857-0.9525-1.214 0-1.881 0.9525-0.6668 0.9287-0.6668 2.572 0 1.643 0.6668 2.619 0.6668 0.9525 1.881 0.9525 1.214 0 1.857-0.9525 0.6668-0.9763 0.6668-2.619z"/><path d="m91.16 16.68q0.9763 0 1.381-0.1905 0.4048-0.1905 0.4048-0.7382 0-0.4286-0.5239-0.7382-0.5239-0.3334-1.595-0.7382-0.8334-0.3096-1.524-0.6429-0.6668-0.3334-1.143-0.7858-0.4762-0.4762-0.7382-1.119-0.2619-0.6429-0.2619-1.548 0-1.762 1.31-2.786 1.31-1.024 3.596-1.024 1.143 0 2.191 0.2143 1.048 0.1905 1.667 0.4286l-0.6191 2.762q-0.6191-0.2143-1.357-0.381-0.7144-0.1667-1.619-0.1667-1.667 0-1.667 0.9287 0 0.2143 0.07144 0.381 0.07144 0.1667 0.2858 0.3334 0.2143 0.1429 0.5715 0.3334 0.381 0.1667 0.9525 0.381 1.167 0.4286 1.929 0.8572 0.762 0.4048 1.191 0.9049 0.4524 0.4762 0.6191 1.072 0.1905 0.5953 0.1905 1.381 0 1.857-1.405 2.81-1.381 0.9525-3.929 0.9525-1.667 0-2.786-0.2858-1.095-0.2858-1.524-0.4762l0.5953-2.881q0.9049 0.3572 1.857 0.5715 0.9525 0.1905 1.881 0.1905z"/><path d="m110.1 12.94q0 1.476-0.4286 2.715-0.4286 1.214-1.238 2.096-0.8096 0.8572-1.953 1.334-1.119 0.4762-2.524 0.4762-1.381 0-2.524-0.4762-1.119-0.4762-1.929-1.334-0.8096-0.8811-1.262-2.096-0.4524-1.238-0.4524-2.715t0.4524-2.691q0.4762-1.214 1.286-2.072 0.8334-0.8572 1.953-1.334 1.143-0.4762 2.476-0.4762 1.357 0 2.476 0.4762 1.143 0.4762 1.953 1.334 0.8096 0.8572 1.262 2.072 0.4524 1.214 0.4524 2.691zm-3.62 0q0-1.643-0.6668-2.572-0.6429-0.9525-1.857-0.9525t-1.881 0.9525q-0.6668 0.9287-0.6668 2.572 0 1.643 0.6668 2.619 0.6668 0.9525 1.881 0.9525t1.857-0.9525q0.6668-0.9763 0.6668-2.619z"/><path d="m120.2 13.06q0-1.643-0.7382-2.619-0.7382-1-2.191-1-0.4762 0-0.8811 0.04762-0.4048 0.02381-0.6668 0.07144v6.406q0.3334 0.2143 0.8572 0.3572 0.5477 0.1429 1.095 0.1429 2.524 0 2.524-3.405zm3.62-0.09525q0 1.453-0.3572 2.643t-1.048 2.048-1.714 1.334-2.357 0.4762q-0.7382 0-1.381-0.1429-0.6429-0.1429-1.238-0.4048v4.715h-3.548v-16.5q0.4762-0.1429 1.095-0.2619 0.6191-0.1429 1.286-0.2381 0.6906-0.09525 1.381-0.1429 0.7144-0.07144 1.357-0.07144 1.548 0 2.762 0.4762 1.214 0.4524 2.048 1.31 0.8334 0.8334 1.262 2.048 0.4524 1.214 0.4524 2.715z"/><path d="m125.9 19.23v-17.91l3.548-0.5715v6.001q0.3572-0.1191 0.9049-0.2143 0.5715-0.1191 1.095-0.1191 1.524 0 2.524 0.4286 1.024 0.4048 1.619 1.167 0.6191 0.762 0.8572 1.81 0.2619 1.048 0.2619 2.334v7.072h-3.548v-6.644q0-1.714-0.4524-2.429-0.4286-0.7144-1.619-0.7144-0.4762 0-0.9049 0.09525-0.4048 0.07144-0.7382 0.1667v9.525z"/><path d="m150 6.703q-1.072 3.62-2.238 6.787-1.167 3.167-2.548 6.144-0.5001 1.072-1 1.81-0.5001 0.762-1.095 1.238-0.5953 0.5001-1.357 0.7144-0.7382 0.2381-1.738 0.2381-0.8334 0-1.548-0.1667-0.6906-0.1429-1.143-0.3334l0.6191-2.834q0.5477 0.1905 0.9763 0.2619 0.4286 0.07144 0.9049 0.07144 0.9525 0 1.453-0.5239 0.5239-0.5001 0.8811-1.405-1.214-2.381-2.429-5.334-1.214-2.977-2.286-6.668h3.762q0.2381 0.9287 0.5477 2.024 0.3334 1.072 0.6906 2.191 0.3572 1.095 0.7144 2.143 0.381 1.048 0.7144 1.905 0.3096-0.8572 0.6429-1.905 0.3334-1.048 0.6429-2.143 0.3334-1.119 0.6191-2.191 0.3096-1.095 0.5477-2.024z"/><path d="m168 12.94q0 1.476-0.4286 2.715-0.4286 1.214-1.238 2.096-0.8096 0.8572-1.953 1.334-1.119 0.4762-2.524 0.4762-1.381 0-2.524-0.4762-1.119-0.4762-1.929-1.334-0.8096-0.8811-1.262-2.096-0.4524-1.238-0.4524-2.715t0.4524-2.691q0.4762-1.214 1.286-2.072 0.8334-0.8572 1.953-1.334 1.143-0.4762 2.476-0.4762 1.357 0 2.476 0.4762 1.143 0.4762 1.953 1.334 0.8096 0.8572 1.262 2.072 0.4524 1.214 0.4524 2.691zm-3.62 0q0-1.643-0.6668-2.572-0.6429-0.9525-1.857-0.9525t-1.881 0.9525q-0.6668 0.9287-0.6668 2.572 0 1.643 0.6668 2.619 0.6668 0.9525 1.881 0.9525t1.857-0.9525q0.6668-0.9763 0.6668-2.619z"/><path d="m175.5 0.7499q1 0 1.834 0.2143 0.8334 0.1905 1.286 0.381l-0.6906 2.834q-0.4762-0.2143-1.048-0.3096-0.5477-0.1191-1.024-0.1191-0.6429 0-1.095 0.1905-0.4286 0.1667-0.6906 0.4762-0.2381 0.3096-0.3572 0.7382-0.0953 0.4286-0.0953 0.9287v0.6191h4.382v2.953h-4.382v9.573h-3.548v-13.19q0-2.429 1.357-3.858 1.381-1.429 4.072-1.429z"/><path d="m41.81 43.04v-16.5h11.14v3.119h-7.43v3.238h6.596v3.048h-6.596v3.977h7.977v3.119z"/><path d="m55.31 30.94q0.9049-0.2619 2.334-0.4762 1.429-0.2381 3-0.2381 1.595 0 2.643 0.4286 1.072 0.4048 1.691 1.167t0.8811 1.81q0.2619 1.048 0.2619 2.334v7.072h-3.548v-6.644q0-1.714-0.4524-2.429-0.4524-0.7144-1.691-0.7144-0.381 0-0.8096 0.04762-0.4286 0.02381-0.762 0.07144v9.668h-3.548z"/><path d="m71.7 36.37q0 2.977 2.405 2.977 0.5477 0 1.024-0.1429t0.8096-0.3334v-5.667q-0.2619-0.04762-0.6191-0.07144-0.3572-0.04763-0.8334-0.04763-1.405 0-2.096 0.9287-0.6906 0.9287-0.6906 2.357zm7.787 5.096q0 3.072-1.572 4.548-1.548 1.5-4.81 1.5-1.143 0-2.286-0.2143-1.143-0.1905-2.119-0.5239l0.6191-2.977q0.8334 0.3334 1.738 0.5239 0.9287 0.1905 2.096 0.1905 1.524 0 2.143-0.6668 0.6429-0.6668 0.6429-1.714v-0.4524q-0.5715 0.2619-1.191 0.4048-0.5953 0.1191-1.31 0.1191-2.596 0-3.977-1.524-1.381-1.548-1.381-4.31 0-1.381 0.4286-2.5 0.4286-1.143 1.238-1.953 0.8334-0.8096 2.024-1.238 1.191-0.4524 2.691-0.4524 0.6429 0 1.31 0.07144 0.6906 0.04763 1.357 0.1429 0.6668 0.09525 1.262 0.2381 0.6191 0.1191 1.095 0.2619z"/><path d="m85.68 43.04h-3.548v-12.53h3.548zm0.3334-16.14q0 0.9763-0.6429 1.548-0.6191 0.5477-1.476 0.5477t-1.5-0.5477q-0.6191-0.5715-0.6191-1.548 0-0.9763 0.6191-1.524 0.6429-0.5715 1.5-0.5715t1.476 0.5715q0.6429 0.5477 0.6429 1.524z"/><path d="m88.33 30.94q0.9049-0.2619 2.334-0.4762 1.429-0.2381 3-0.2381 1.595 0 2.643 0.4286 1.072 0.4048 1.691 1.167t0.8811 1.81q0.2619 1.048 0.2619 2.334v7.072h-3.548v-6.644q0-1.714-0.4524-2.429-0.4524-0.7144-1.691-0.7144-0.381 0-0.8096 0.04762-0.4286 0.02381-0.762 0.07144v9.668h-3.548z"/><path d="m101.1 36.87q0-1.667 0.5001-2.905 0.5239-1.262 1.357-2.096 0.8334-0.8334 1.905-1.262 1.095-0.4286 2.238-0.4286 2.667 0 4.215 1.643 1.548 1.619 1.548 4.786 0 0.3096-0.0238 0.6906-0.0238 0.3572-0.0476 0.6429h-8.049q0.1191 1.095 1.024 1.738 0.9049 0.6429 2.429 0.6429 0.9763 0 1.905-0.1667 0.9525-0.1905 1.548-0.4524l0.4762 2.881q-0.2858 0.1429-0.762 0.2858t-1.072 0.2381q-0.5715 0.1191-1.238 0.1905-0.6668 0.07144-1.334 0.07144-1.691 0-2.953-0.5001-1.238-0.5001-2.072-1.357-0.8096-0.8811-1.214-2.072-0.381-1.191-0.381-2.572zm8.334-1.357q-0.0238-0.4524-0.1667-0.8811-0.1191-0.4286-0.4048-0.762-0.2619-0.3334-0.6906-0.5477-0.4048-0.2143-1.024-0.2143-0.5953 0-1.024 0.2143-0.4286 0.1905-0.7144 0.5239t-0.4524 0.7858q-0.1429 0.4286-0.2143 0.8811z"/><path d="m114.3 36.87q0-1.667 0.5001-2.905 0.5239-1.262 1.357-2.096 0.8334-0.8334 1.905-1.262 1.095-0.4286 2.238-0.4286 2.667 0 4.215 1.643 1.548 1.619 1.548 4.786 0 0.3096-0.0238 0.6906-0.0238 0.3572-0.0476 0.6429h-8.049q0.1191 1.095 1.024 1.738 0.9049 0.6429 2.429 0.6429 0.9763 0 1.905-0.1667 0.9525-0.1905 1.548-0.4524l0.4762 2.881q-0.2858 0.1429-0.762 0.2858t-1.072 0.2381q-0.5715 0.1191-1.238 0.1905-0.6668 0.07144-1.334 0.07144-1.691 0-2.953-0.5001-1.238-0.5001-2.072-1.357-0.8096-0.8811-1.214-2.072-0.381-1.191-0.381-2.572zm8.334-1.357q-0.0238-0.4524-0.1667-0.8811-0.1191-0.4286-0.4048-0.762-0.2619-0.3334-0.6906-0.5477-0.4048-0.2143-1.024-0.2143-0.5953 0-1.024 0.2143-0.4286 0.1905-0.7144 0.5239t-0.4524 0.7858q-0.1429 0.4286-0.2143 0.8811z"/><path d="m135.7 33.66q-0.4762-0.1191-1.119-0.2381-0.6429-0.1429-1.381-0.1429-0.3334 0-0.8096 0.07144-0.4524 0.04762-0.6906 0.1191v9.573h-3.548v-11.86q0.9525-0.3334 2.238-0.6191 1.31-0.3096 2.905-0.3096 0.2858 0 0.6906 0.04763 0.4048 0.02381 0.8096 0.09525 0.4048 0.04763 0.8096 0.1429 0.4048 0.07144 0.6906 0.1905z"/><path d="m141.1 43.04h-3.548v-12.53h3.548zm0.3334-16.14q0 0.9763-0.6429 1.548-0.6191 0.5477-1.476 0.5477t-1.5-0.5477q-0.6191-0.5715-0.6191-1.548 0-0.9763 0.6191-1.524 0.6429-0.5715 1.5-0.5715t1.476 0.5715q0.6429 0.5477 0.6429 1.524z"/><path d="m143.7 30.94q0.9049-0.2619 2.334-0.4762 1.429-0.2381 3-0.2381 1.595 0 2.643 0.4286 1.072 0.4048 1.691 1.167 0.6191 0.762 0.8811 1.81t0.2619 2.334v7.072h-3.548v-6.644q0-1.714-0.4524-2.429-0.4524-0.7144-1.691-0.7144-0.381 0-0.8096 0.04762-0.4286 0.02381-0.762 0.07144v9.668h-3.548z"/><path d="m160.1 36.37q0 2.977 2.405 2.977 0.5477 0 1.024-0.1429t0.8096-0.3334v-5.667q-0.2619-0.04762-0.6191-0.07144-0.3572-0.04763-0.8334-0.04763-1.405 0-2.096 0.9287-0.6906 0.9287-0.6906 2.357zm7.787 5.096q0 3.072-1.572 4.548-1.548 1.5-4.81 1.5-1.143 0-2.286-0.2143-1.143-0.1905-2.119-0.5239l0.6191-2.977q0.8334 0.3334 1.738 0.5239 0.9287 0.1905 2.096 0.1905 1.524 0 2.143-0.6668 0.6429-0.6668 0.6429-1.714v-0.4524q-0.5715 0.2619-1.191 0.4048-0.5953 0.1191-1.31 0.1191-2.596 0-3.977-1.524-1.381-1.548-1.381-4.31 0-1.381 0.4286-2.5 0.4286-1.143 1.238-1.953 0.8334-0.8096 2.024-1.238 1.191-0.4524 2.691-0.4524 0.6429 0 1.31 0.07144 0.6906 0.04763 1.357 0.1429 0.6668 0.09525 1.262 0.2381 0.6191 0.1191 1.095 0.2619z"/></g></svg>
