<svg xmlns="http://www.w3.org/2000/svg" xmlns:svg="http://www.w3.org/2000/svg" id="svg858" width="737.353" height="90.234" version="1.1" viewBox="0 0 195.091 23.874"><defs id="defs852"><rect id="rect1423" width="209.399" height="102.81" x="0" y="0"/></defs><metadata id="metadata855"/><g id="layer1" transform="translate(-7.1859152,-2.2636374)"><g style="font-size:26.4583px;line-height:1;font-family:sans-serif;text-align:center;text-anchor:middle;white-space:pre;shape-inside:url(#rect1423)" id="text1421" aria-label="radioimmaginaria"><path id="path1447" d="m 12.405228,6.0360121 -0.206705,2.247922 q 1.13688,-2.4158702 3.294368,-2.5579802 V 11.75917 q -1.434019,0 -2.105812,0.387572 -0.671793,0.387573 -0.826822,1.085204 -0.155029,0.684712 -0.155029,3.178097 v 6.769604 H 7.1859152 V 6.0360121 Z" style="fill:#fff"/><path id="path1449" d="m 21.306482,12.676425 h -4.896336 v -1.149799 q 0,-1.98954 0.452168,-3.0618246 0.465088,-1.0852037 1.847431,-1.9120256 1.382342,-0.8268219 3.591507,-0.8268219 2.648414,0 3.991999,0.9430937 1.343586,0.9301746 1.614887,2.2995983 0.271301,1.3565051 0.271301,5.6068861 v 8.604115 h -5.077203 v -1.524453 q -0.478007,0.917255 -1.240233,1.382343 -0.749307,0.452168 -1.795754,0.452168 -1.369424,0 -2.519223,-0.762227 -1.13688,-0.775145 -1.13688,-3.371882 v -1.408181 q 0,-1.924945 0.607198,-2.622576 0.607197,-0.697631 3.010148,-1.627806 2.570899,-1.007689 2.751766,-1.356504 0.180868,-0.348816 0.180868,-1.4211 0,-1.3435858 -0.206706,-1.7440776 -0.193786,-0.4134109 -0.658873,-0.4134109 -0.529683,0 -0.658874,0.3488154 -0.129191,0.3358964 -0.129191,1.7699151 z m 1.653644,2.351275 q -1.253152,0.917255 -1.459858,1.537372 -0.193786,0.620116 -0.193786,1.782834 0,1.330667 0.167948,1.71824 0.180867,0.387572 0.697631,0.387572 0.490926,0 0.633036,-0.297139 0.155029,-0.310058 0.155029,-1.601967 z" style="fill:#fff"/><path id="path1451" d="M 41.847837,2.2636374 V 23.179647 h -5.219313 v -1.240233 q -0.749308,0.775145 -1.57613,1.162718 -0.826822,0.387573 -1.731158,0.387573 -1.214395,0 -2.105812,-0.633036 -0.891417,-0.645954 -1.149799,-1.485695 -0.245463,-0.839741 -0.245463,-2.738848 v -8.022755 q 0,-1.9766215 0.245463,-2.8034433 0.258382,-0.8268219 1.162718,-1.4469383 0.904337,-0.6330355 2.157489,-0.6330355 0.968931,0 1.769915,0.3488155 0.813903,0.3488155 1.472777,1.0464464 V 2.2636374 Z m -5.219313,8.0873516 q 0,-0.943094 -0.167949,-1.2660713 -0.155029,-0.3229772 -0.633035,-0.3229772 -0.465087,0 -0.633036,0.2971391 -0.155029,0.28422 -0.155029,1.2919094 v 8.397409 q 0,1.046447 0.155029,1.382343 0.155029,0.322977 0.594279,0.322977 0.503844,0 0.671792,-0.361734 0.167949,-0.374654 0.167949,-1.808673 z" style="fill:#fff"/><path id="path1453" d="M 49.095448,2.2636374 V 4.9895657 H 43.721106 V 2.2636374 Z m 0,3.7723747 V 23.179647 H 43.721106 V 6.0360121 Z" style="fill:#fff"/><path id="path1455" d="m 62.763847,12.056309 v 4.198705 q 0,2.312517 -0.232544,3.397721 -0.232543,1.072284 -0.99477,2.015378 -0.762226,0.930175 -1.963701,1.382343 -1.188557,0.439249 -2.738848,0.439249 -1.731158,0 -2.932634,-0.374654 -1.201475,-0.387573 -1.873268,-1.149799 -0.658874,-0.775145 -0.943094,-1.860349 -0.28422,-1.098123 -0.28422,-3.281449 v -4.392492 q 0,-2.390031 0.516764,-3.733617 0.516764,-1.3435855 1.860349,-2.1574883 1.343586,-0.8139028 3.436479,-0.8139028 1.756996,0 3.010148,0.5296828 1.266071,0.5167636 1.950783,1.3565046 0.684712,0.839741 0.930174,1.7311583 0.258382,0.8914174 0.258382,2.7130094 z M 57.544534,10.7644 q 0,-1.3177477 -0.14211,-1.6536441 -0.14211,-0.3488154 -0.607197,-0.3488154 -0.465087,0 -0.620117,0.3488154 -0.155029,0.3358964 -0.155029,1.6536441 v 7.738536 q 0,1.214394 0.155029,1.589048 0.15503,0.361734 0.607198,0.361734 0.465087,0 0.607197,-0.335896 0.155029,-0.335896 0.155029,-1.446938 z" style="fill:#000;fill-opacity:1"/><path id="path1457" d="M 69.869347,2.2636374 V 4.9895657 H 64.495005 V 2.2636374 Z m 0,3.7723747 V 23.179647 H 64.495005 V 6.0360121 Z" style="fill:#fff"/><path id="path1459" d="m 76.88441,6.0360121 -0.09043,1.6278056 q 0.607197,-0.9689319 1.446938,-1.4469383 0.839741,-0.4909255 1.912025,-0.4909255 2.092893,0 3.294369,1.9378638 0.658873,-0.9689319 1.485695,-1.4469383 0.826822,-0.4909255 1.834511,-0.4909255 1.330667,0 2.196246,0.6459546 0.878498,0.6459546 1.123961,1.5890483 0.245463,0.9301746 0.245463,3.0359862 V 23.179647 H 85.268901 V 12.004632 q 0,-2.1962451 -0.155029,-2.7130088 -0.14211,-0.5296827 -0.684712,-0.5296827 -0.555521,0 -0.723469,0.5167636 -0.155029,0.5167637 -0.155029,2.7259279 V 23.179647 H 78.486378 V 12.288852 q 0,-2.5192224 -0.129191,-3.023067 -0.116272,-0.5038445 -0.671793,-0.5038445 -0.348816,0 -0.594278,0.2713009 -0.245463,0.2583818 -0.271301,0.6459546 -0.02584,0.374654 -0.02584,1.614886 V 23.179647 H 71.729693 V 6.0360121 Z" style="fill:#fff"/><path id="path1461" d="m 97.296581,6.0360121 -0.09043,1.6278056 q 0.607197,-0.9689319 1.446938,-1.4469383 0.839741,-0.4909255 1.912025,-0.4909255 2.09289,0 3.29437,1.9378638 0.65887,-0.9689319 1.48569,-1.4469383 0.82683,-0.4909255 1.83452,-0.4909255 1.33066,0 2.19624,0.6459546 0.8785,0.6459546 1.12396,1.5890483 0.24547,0.9301746 0.24547,3.0359862 v 12.182704 h -5.06429 V 12.004632 q 0,-2.1962451 -0.15503,-2.7130088 -0.14211,-0.5296827 -0.68471,-0.5296827 -0.55552,0 -0.72347,0.5167636 -0.15503,0.5167637 -0.15503,2.7259279 V 23.179647 H 98.898548 V 12.288852 q 0,-2.5192224 -0.129191,-3.023067 -0.116272,-0.5038445 -0.671793,-0.5038445 -0.348815,0 -0.594278,0.2713009 -0.245463,0.2583818 -0.271301,0.6459546 -0.02584,0.374654 -0.02584,1.614886 V 23.179647 H 92.141863 V 6.0360121 Z" style="fill:#fff"/><path id="path1463" d="m 117.21782,12.676425 h -4.89634 v -1.149799 q 0,-1.98954 0.45217,-3.0618246 0.46509,-1.0852037 1.84743,-1.9120256 1.38234,-0.8268219 3.59151,-0.8268219 2.64841,0 3.992,0.9430937 1.34358,0.9301746 1.61488,2.2995983 0.2713,1.3565051 0.2713,5.6068861 v 8.604115 h -5.0772 v -1.524453 q -0.478,0.917255 -1.24023,1.382343 -0.74931,0.452168 -1.79575,0.452168 -1.36943,0 -2.51923,-0.762227 -1.13688,-0.775145 -1.13688,-3.371882 v -1.408181 q 0,-1.924945 0.6072,-2.622576 0.6072,-0.697631 3.01015,-1.627806 2.5709,-1.007689 2.75176,-1.356504 0.18087,-0.348816 0.18087,-1.4211 0,-1.3435858 -0.2067,-1.7440776 -0.19379,-0.4134109 -0.65888,-0.4134109 -0.52968,0 -0.65887,0.3488154 -0.12919,0.3358964 -0.12919,1.7699151 z m 1.65364,2.351275 q -1.25315,0.917255 -1.45986,1.537372 -0.19378,0.620116 -0.19378,1.782834 0,1.330667 0.16795,1.71824 0.18086,0.387572 0.69763,0.387572 0.49092,0 0.63303,-0.297139 0.15503,-0.310058 0.15503,-1.601967 z" style="fill:#fff"/><path id="path1465" d="M 137.74626,6.0360121 V 19.239324 q 0,2.674252 -0.12919,3.462316 -0.11628,0.775146 -0.86558,1.640725 -0.74931,0.878498 -2.0929,1.330666 -1.33066,0.465088 -3.35896,0.465088 -2.49339,0 -4.00492,-0.85266 -1.51153,-0.839741 -1.56321,-3.320207 h 5.06428 q 0,1.13688 0.82683,1.13688 0.59428,0 0.78806,-0.348815 0.19379,-0.348816 0.19379,-1.459858 V 20.00155 q -0.67179,0.607197 -1.4211,0.917256 -0.73639,0.310058 -1.55029,0.310058 -1.40818,0 -2.32544,-0.56844 -0.90434,-0.56844 -1.24023,-1.485696 -0.3359,-0.930174 -0.3359,-2.635494 v -6.227003 q 0,-2.4417079 0.8785,-3.5139925 0.8785,-1.0722846 2.67425,-1.0722846 0.98185,0 1.78284,0.4004919 0.8139,0.4004918 1.44693,1.2014755 l 0.37466,-1.2919092 z m -5.23224,4.5475199 q 0,-1.175637 -0.14211,-1.4986143 -0.12919,-0.3229772 -0.59427,-0.3229772 -0.45217,0 -0.64596,0.3746536 -0.18087,0.3617346 -0.18087,1.4469379 v 5.761915 q 0,1.149799 0.14211,1.498615 0.14211,0.335896 0.59428,0.335896 0.51677,0 0.6718,-0.413411 0.15502,-0.413411 0.15502,-1.873268 z" style="fill:#fff"/><path id="path1467" d="m 145.00679,2.2636374 v 2.7259283 h -5.37434 V 2.2636374 Z m 0,3.7723747 V 23.179647 h -5.37434 V 6.0360121 Z" style="fill:#fff"/><path id="path1469" d="m 152.17688,6.0360121 -0.0904,1.5761292 q 0.56844,-0.9430937 1.38234,-1.408181 0.82683,-0.4780064 1.89911,-0.4780064 1.34359,0 2.19625,0.6330355 0.85266,0.6330355 1.09812,1.6019674 0.24546,0.9560128 0.24546,3.2039342 v 12.014756 h -5.21931 V 11.307002 q 0,-1.769916 -0.11627,-2.1574888 -0.11627,-0.3875727 -0.64596,-0.3875727 -0.55552,0 -0.69763,0.4521682 -0.14211,0.4392491 -0.14211,2.3771133 v 11.588425 h -5.21931 V 6.0360121 Z" style="fill:#fff"/><path id="path1471" d="m 165.38019,12.676425 h -4.89633 v -1.149799 q 0,-1.98954 0.45217,-3.0618246 0.46508,-1.0852037 1.84743,-1.9120256 1.38234,-0.8268219 3.5915,-0.8268219 2.64842,0 3.992,0.9430937 1.34359,0.9301746 1.61489,2.2995983 0.2713,1.3565051 0.2713,5.6068861 v 8.604115 h -5.0772 v -1.524453 q -0.47801,0.917255 -1.24023,1.382343 -0.74931,0.452168 -1.79576,0.452168 -1.36942,0 -2.51922,-0.762227 -1.13688,-0.775145 -1.13688,-3.371882 v -1.408181 q 0,-1.924945 0.6072,-2.622576 0.60719,-0.697631 3.01014,-1.627806 2.5709,-1.007689 2.75177,-1.356504 0.18087,-0.348816 0.18087,-1.4211 0,-1.3435858 -0.20671,-1.7440776 -0.19378,-0.4134109 -0.65887,-0.4134109 -0.52968,0 -0.65887,0.3488154 -0.1292,0.3358964 -0.1292,1.7699151 z m 1.65365,2.351275 q -1.25315,0.917255 -1.45986,1.537372 -0.19379,0.620116 -0.19379,1.782834 0,1.330667 0.16795,1.71824 0.18087,0.387572 0.69763,0.387572 0.49093,0 0.63304,-0.297139 0.15503,-0.310058 0.15503,-1.601967 z" style="fill:#fff"/><path id="path1473" d="m 179.26822,6.0360121 -0.20671,2.247922 q 1.13688,-2.4158702 3.29437,-2.5579802 V 11.75917 q -1.43402,0 -2.10581,0.387572 -0.67179,0.387573 -0.82682,1.085204 -0.15503,0.684712 -0.15503,3.178097 v 6.769604 h -5.21931 V 6.0360121 Z" style="fill:#fff"/><path id="path1475" d="m 188.88002,2.2636374 v 2.7259283 h -5.37434 V 2.2636374 Z m 0,3.7723747 V 23.179647 h -5.37434 V 6.0360121 Z" style="fill:#fff"/><path id="path1477" d="m 195.40417,12.676425 h -4.89634 v -1.149799 q 0,-1.98954 0.45217,-3.0618246 0.46509,-1.0852037 1.84743,-1.9120256 1.38234,-0.8268219 3.59151,-0.8268219 2.64841,0 3.992,0.9430937 1.34358,0.9301746 1.61488,2.2995983 0.2713,1.3565051 0.2713,5.6068861 v 8.604115 h -5.0772 v -1.524453 q -0.47801,0.917255 -1.24023,1.382343 -0.74931,0.452168 -1.79576,0.452168 -1.36942,0 -2.51922,-0.762227 -1.13688,-0.775145 -1.13688,-3.371882 v -1.408181 q 0,-1.924945 0.6072,-2.622576 0.60719,-0.697631 3.01015,-1.627806 2.5709,-1.007689 2.75176,-1.356504 0.18087,-0.348816 0.18087,-1.4211 0,-1.3435858 -0.20671,-1.7440776 -0.19378,-0.4134109 -0.65887,-0.4134109 -0.52968,0 -0.65887,0.3488154 -0.12919,0.3358964 -0.12919,1.7699151 z m 1.65364,2.351275 q -1.25315,0.917255 -1.45986,1.537372 -0.19378,0.620116 -0.19378,1.782834 0,1.330667 0.16794,1.71824 0.18087,0.387572 0.69764,0.387572 0.49092,0 0.63303,-0.297139 0.15503,-0.310058 0.15503,-1.601967 z" style="fill:#fff"/></g></g></svg>