<svg xmlns="http://www.w3.org/2000/svg" style="enable-background:new 0 0 242.667 242.667" version="1.1" viewBox="0 0 242.67 242.67" xml:space="preserve"><path d="m0 0v242.67h242.67v-242.67h-242.67zm185.59 118.48c-5.554 7.835-29.352 46.013-43.947 59.361-15.095 13.805-32.182 20.755-45.475 0s-19.208-62.744-22.388-73.459c-3.148-10.611-7.463-13.759-12.36-12.36s-11.427 7.929-11.427 7.929l-7.696-10.494s18.423-18.889 32.882-28.917 26.585-8.629 33.115 8.629c6.53 17.257 9.095 52.937 12.127 63.431s12.36 14.692 20.522 0 18.656-33.815 10.727-42.443c-7.929-8.629-20.289 0.7-20.289 0.7s10.961-42.676 47.807-38.245c36.848 4.429 18.277 49.118 6.402 65.868z" style="fill:#fcc920"/></svg>