<svg style="enable-background:new 0 0 455.731 455.731" version="1.1" viewBox="0 0 455.73 455.73" xml:space="preserve" xmlns="http://www.w3.org/2000/svg">
<g style="fill:var(--primary)">
	<path d="m228.07 95.321c-72.877 0-132.17 59.29-132.17 132.17 0 25.393 7.217 50.052 20.869 71.311l3.281 5.109-12.855 45.658 47.238-12.16 4.872 2.975c20.654 12.609 44.432 19.274 68.762 19.274 72.877 0 132.17-59.29 132.17-132.17s-59.289-132.17-132.17-132.17zm81.046 172.79-1.649 7.702c-1.86 8.69-7.021 16.377-14.508 21.166-9.453 6.047-21.706 9.016-37.28 4.612-48.333-13.667-75.667-45.667-90.333-65.667-14.667-20-20.333-40-16.667-56.333 2.459-10.954 10.465-19.359 15.472-23.708 2.453-2.13 5.635-3.214 8.878-3.037l10.328 0.563c2.034 0.111 3.828 1.367 4.629 3.24l15.045 35.201c0.804 1.881 0.465 4.055-0.872 5.602l-13.096 15.15c-1.062 1.228-1.247 2.978-0.499 4.419 17.248 33.224 48.682 46.389 58.066 49.687 1.599 0.562 3.371 0.031 4.407-1.312l13.703-17.764c1.524-1.976 4.211-2.636 6.477-1.591l34.905 16.089c2.275 1.049 3.518 3.533 2.994 5.981z" style="fill:var(--primary)"/>
	<path d="m0 0v455.73h455.73v-455.73h-455.73zm228.07 386.66c-27.347 0-54.125-7-77.814-20.292l-81.763 21.047 22.323-79.284c-14.355-24.387-21.913-52.134-21.913-80.638 0-87.765 71.402-159.17 159.17-159.17s159.17 71.402 159.17 159.17-71.401 159.17-159.17 159.17z" style="fill:var(--primary)"/>
</g>
</svg>
